<?xml version="1.0" encoding="utf-8"?>
<!-- Generator: Adobe Illustrator 16.0.0, SVG Export Plug-In . SVG Version: 6.00 Build 0)  -->
<!DOCTYPE svg PUBLIC "-//W3C//DTD SVG 1.1//EN" "http://www.w3.org/Graphics/SVG/1.1/DTD/svg11.dtd">
<svg version="1.1" id="Layer_1" xmlns="http://www.w3.org/2000/svg" xmlns:xlink="http://www.w3.org/1999/xlink" x="0px" y="0px"
	 width="792px" height="612px" viewBox="0 0 792 612" enable-background="new 0 0 792 612" xml:space="preserve">
<g>
	<path fill="#0F1340" stroke="#000000" stroke-miterlimit="10" d="M435.169,240.972v128.996c0,6.311-20.867,12.87-44.804,12.87
		c-23.931,0-42.746-6.241-42.746-11.988V241.858"/>
	<path fill="#FFFFFF" stroke="#000000" stroke-miterlimit="10" d="M435.169,365.503v5.347c0,5.432-20.871,11.988-44.806,11.988
		c-23.932,0-42.744-6.241-42.744-11.988v-4.342c4.022,5.125,21.372,10.225,42.728,10.225
		C411.842,376.732,430.919,370.653,435.169,365.503z"/>
	<path fill="#FFFFFF" stroke="#000000" stroke-miterlimit="10" d="M435.169,241.93v10.08c-6.723,6.062-24.778,9.604-44.868,9.604
		c-19.812,0-35.73-3.225-42.682-9.705v-9.979c0,7.994,18.812,14.158,42.744,14.158C414.298,256.087,435.169,249.924,435.169,241.93z
		"/>
	<path fill="#BCBEC0" stroke="#000000" stroke-miterlimit="10" d="M435.169,241.858c0-7.993-20.867-13.021-44.804-13.021
		c-23.931,0-42.746,5.027-42.746,13.021c0,7.995,18.815,14.155,42.746,14.155C414.302,256.014,435.169,249.853,435.169,241.858z"/>
	
		<line fill="none" stroke="#B1B4DA" stroke-width="0.8655" stroke-linecap="round" stroke-linejoin="round" stroke-miterlimit="10" x1="371.857" y1="315.364" x2="410.635" y2="315.364"/>
	<g id="_x38_Dn2zM.tif_2_">
		<g>
			<path fill-rule="evenodd" clip-rule="evenodd" fill="#B1B4DA" d="M380.936,298.195c-0.133,0.031-0.267,0.062-0.367,0.085
				c-0.229-0.627-0.433-1.271-0.703-1.888c-0.468-1.055-1.154-1.965-2.09-2.685c-0.081-0.064-0.181-0.11-0.27-0.166
				c-0.002-0.02-0.003-0.042-0.004-0.062c0.275-0.426,0.553-0.851,0.84-1.3c-0.102-0.027-0.152-0.049-0.158-0.04
				c-0.283,0.404-0.559,0.813-0.839,1.22l-0.004,0.005c-0.663-0.336-1.325-0.674-1.983-1.01c1.277-0.864,2.029-2.138,2.298-3.694
				c0.276-1.584-0.05-3.003-1.253-4.206c0.926-0.127,1.807-0.339,2.578-0.812c0.518-0.319,1.017-0.704,1.429-1.144
				c0.569-0.615,0.687-1.372,0.397-2.207c0.096-0.009,0.182-0.018,0.271-0.026c0.279,0.036,0.562,0.072,0.84,0.107
				c0.045,0.021,0.088,0.049,0.133,0.062c1.098,0.298,2.207,0.567,3.295,0.903c0.516,0.16,0.992,0.441,1.499,0.673
				c-0.091,0.159-0.144,0.251-0.2,0.342c-0.506,0.825-1.018,1.65-1.521,2.479c-0.045,0.078-0.061,0.176-0.088,0.265
				c0.043,0.018,0.082,0.035,0.125,0.054c0.614-0.995,1.229-1.989,1.85-2.994c0.646,0.453,1.158,0.953,1.166,1.712
				c0.234,0.023,0.443,0.043,0.65,0.064c-0.278,0.447-0.561,0.896-0.838,1.344c0.046,0.026,0.09,0.055,0.135,0.082
				c0.388-0.453,0.631-1.003,0.967-1.492c0.064-0.003,0.129-0.007,0.193-0.012c0.064,0.006,0.129,0.01,0.193,0.015
				c0.066,0.017,0.134,0.034,0.2,0.051c0.028,0.002,0.051,0.004,0.077,0.007c0.061,0.019,0.125,0.038,0.189,0.058
				c2.373,0.891,4.047,2.458,4.941,4.784c0.018,0.064,0.037,0.126,0.059,0.189c0.004,0.043,0.008,0.087,0.012,0.129
				c0.016,0.066,0.031,0.131,0.05,0.198c0.003,0.251,0.005,0.504,0.008,0.754c0.084,0.019,0.173,0.037,0.257,0.054
				c-0.016,0.086-0.011,0.186-0.055,0.258c-0.331,0.557-0.676,1.104-1.01,1.658c-0.057,0.092-0.096,0.194-0.098,0.315
				c0.373-0.251,0.52-0.661,0.746-1.004c0.242-0.362,0.455-0.743,0.678-1.115c0.066,0.008,0.131,0.017,0.197,0.026
				c1.058,0.629,1.674,1.616,2.297,2.605c0.223,0.356,0.234,0.63-0.012,0.987c-0.457,0.659-0.851,1.356-1.268,2.038
				c-0.056,0.09-0.084,0.194-0.126,0.293c0.045,0.021,0.086,0.044,0.132,0.068c0.54-0.873,1.08-1.746,1.652-2.672
				c0.199,0.479,0.377,0.905,0.557,1.33c0.02,0.061,0.043,0.121,0.063,0.181c0.087,0.258,0.179,0.516,0.267,0.774
				c0.022,0.062,0.042,0.122,0.062,0.183l0.001,0.008c0.023,0.061,0.043,0.12,0.064,0.182c0.003,0.024,0.008,0.049,0.013,0.074
				c0.019,0.042,0.034,0.081,0.05,0.121c0.027,0.086,0.051,0.172,0.078,0.257c0.082,0.231,0.164,0.463,0.25,0.694
				c0.066,0.245,0.134,0.491,0.201,0.737c0.004,0.059,0.006,0.12,0.01,0.18l0.01-0.008c-0.224,0.145-0.46,0.278-0.677,0.436
				c-0.938,0.69-1.481,1.631-1.749,2.719c-0.137,0.559-0.229,1.134-0.274,1.707c-0.044,0.589-0.01,1.184-0.01,1.794
				c-1.028-0.788-2.215-1.052-3.519-0.653c-0.231-1.088-0.451-2.136-0.683-3.219c1.253,0.345,2.495,0.685,3.8,1.044
				c0.043-0.19,0.092-0.418,0.152-0.645c0.047-0.174,0.07-0.365,0.168-0.512c0.418-0.643,0.607-1.327,0.473-2.085
				c-0.093-0.511-0.361-0.872-0.891-1.034c-0.264-0.082-0.508-0.162-0.686-0.427c-0.656-0.989-1.361-1.945-2.018-2.933
				c-0.383-0.58-0.873-0.95-1.594-1.041c-0.514-0.065-0.987-0.263-1.397-0.578c-0.101-0.077-0.179-0.177-0.297-0.296
				c1.079-0.381,1.521-1.148,1.507-2.181c-0.01-0.954-0.309-1.825-0.861-2.62c-0.29-0.423-0.68-0.708-1.161-0.883
				c-1.323-0.477-2.724-0.091-3.547,1.051c-0.423,0.586-0.732,1.246-1.101,1.869c-0.094,0.164-0.201,0.329-0.335,0.463
				c-0.167,0.166-0.362,0.25-0.604-0.042c-0.035,0.126-0.126,0.267-0.096,0.372c0.124,0.403,0.494,0.376,0.846,0.444
				c-0.172,0.032-0.338,0.062-0.51,0.095c0.1,0.725,1.095,1.398,2.098,1.412l-0.014-0.006c0.106,0.107,0.218,0.215,0.328,0.322
				l-0.008-0.006c0.034,0.087,0.056,0.187,0.112,0.262c0.073,0.102,0.172,0.184,0.284,0.297c-0.112,0.06-0.199,0.136-0.294,0.147
				c-0.921,0.101-1.515,0.568-1.745,1.448c-0.013,0.049-0.045,0.095-0.065,0.143c-0.908,0.749-1.841,1.47-2.713,2.256
				C382.368,297.911,381.772,298.304,380.936,298.195z M384.867,285.448c-0.232,0.087-3.514,5.404-3.505,5.679
				C381.59,291.045,384.875,285.72,384.867,285.448z M382.086,286.152c-0.041-0.03-0.08-0.06-0.121-0.09
				c-0.067,0.078-0.148,0.15-0.203,0.237c-0.316,0.506-0.627,1.015-0.941,1.523c-0.75,1.216-1.498,2.431-2.244,3.649
				c-0.057,0.094-0.079,0.208-0.121,0.312c0.047,0.018,0.093,0.036,0.136,0.054C379.756,289.943,380.922,288.047,382.086,286.152z
				 M381.326,282.653c-0.043-0.023-0.088-0.048-0.127-0.071c-0.041,0.03-0.091,0.055-0.113,0.095
				c-0.857,1.388-1.712,2.776-2.562,4.167c-0.036,0.063-0.031,0.148-0.049,0.224c0.04,0.015,0.08,0.029,0.116,0.043
				C379.504,285.627,380.432,284.151,381.326,282.653z M381.213,282.466c0.137-0.009,0.213,0.004,0.23-0.019
				c0.33-0.522,0.656-1.046,0.977-1.573c0.014-0.022-0.043-0.083-0.104-0.185C381.945,281.285,381.601,281.84,381.213,282.466z
				 M383.176,284.381c-0.301,0.095-0.967,1.212-0.891,1.508C382.644,285.376,382.942,284.896,383.176,284.381z M381.201,291.485
				c-0.084,0.023-0.145,0.021-0.158,0.045c-0.266,0.422-0.533,0.844-0.79,1.271c-0.019,0.035,0.022,0.102,0.034,0.154
				c0.056-0.034,0.133-0.057,0.164-0.106c0.238-0.375,0.473-0.756,0.702-1.14C381.184,291.656,381.18,291.582,381.201,291.485z
				 M392.779,285.826c-0.322,0.052-0.588,0.428-0.643,0.817C392.487,286.458,392.537,286.126,392.779,285.826z"/>
			<path fill-rule="evenodd" clip-rule="evenodd" fill="#FFD500" d="M387.242,295.315c-0.002,0.026-0.005,0.05-0.008,0.077
				c-0.02,0.062-0.037,0.126-0.053,0.189c-0.007,0.065-0.017,0.13-0.022,0.195c-0.016,0.062-0.03,0.123-0.044,0.185
				c-0.006,0.066-0.013,0.13-0.017,0.196c-0.019,0.163-0.036,0.326-0.054,0.489l-0.006,0.015h-0.017
				c-0.032-0.057-0.069-0.115-0.104-0.172c0.005-0.027,0.009-0.054,0.011-0.081c-0.003-0.064-0.007-0.125-0.014-0.188
				c-0.023-0.002-0.044-0.003-0.069-0.005c-0.021,0.044-0.04,0.088-0.062,0.132c-0.198,0.445-0.396,0.892-0.595,1.337
				c0.006,0.04,0.012,0.076,0.018,0.113c0.037-0.038,0.076-0.078,0.115-0.115c0.209-0.629,0.695-0.729,1.311-0.718
				c1.21,0.022,2.312,0.219,2.943,0.58c-0.062,0.646-0.127,1.26-0.174,1.875c-0.012,0.162,0.029,0.329,0.047,0.492
				c-0.02,0.008-0.035,0.019-0.049,0.033c0.034,0.249-0.012,0.544,0.115,0.734c0.361,0.543,1.041,0.695,1.656,0.518
				c0.102-0.047,0.207-0.094,0.313-0.142c0.128,0,0.259,0,0.445,0c0.232,1.23,0.474,2.453,0.688,3.68
				c0.105,0.596,0.167,1.196,0.244,1.796c0.061,0.462,0.013,0.59-0.441,0.706c-1.012,0.252-2.027,0.523-3.061,0.672
				c-1.092,0.158-2.145-0.146-3.068-0.709c-0.879-0.532-1.697-1.157-2.514-1.774c-0.666-0.503-1.283-1.068-2.317-1.092
				c0.352-0.401,0.613-0.746,0.921-1.049c0.676-0.665,1.387-1.297,2.061-1.963c0.744-0.735,1.184-1.64,1.465-2.622
				c0.014-0.041,0.02-0.084,0.021-0.125c0-0.018-0.021-0.034-0.03-0.048c-0.185,0.401-0.362,0.808-0.557,1.207
				c-0.484,0.993-1.311,1.706-2.107,2.451c-0.605,0.564-1.16,1.18-1.74,1.77c-0.27,0.27-0.279,0.522,0.018,0.778
				c0.057,0.047,0.09,0.115,0.105,0.133c-0.769-0.231-1.569-0.474-2.387-0.721c0.691-0.999,1.543-1.935,2.458-2.811
				c0.901-0.867,1.87-1.671,2.81-2.504c-0.021-0.026-0.043-0.053-0.066-0.078c-0.052,0.032-0.107,0.058-0.154,0.098
				c-0.219,0.194-0.435,0.387-0.646,0.588c-0.229,0.222-0.5,0.288-0.812,0.208c-0.062-0.019-0.122-0.035-0.183-0.051
				c-0.091-0.025-0.185-0.049-0.275-0.074c-0.059-0.019-0.117-0.038-0.178-0.057c-0.031-0.005-0.06-0.012-0.092-0.019
				c-0.033-0.015-0.072-0.03-0.106-0.044l-0.017-0.004c-0.002-0.043-0.004-0.086-0.007-0.131c0.053-0.103,0.106-0.207,0.158-0.311
				c0.015-0.039,0.028-0.079,0.044-0.12c0.002-0.113,0.004-0.224,0.006-0.336c-0.016-0.036-0.029-0.071-0.041-0.106
				c-0.033-0.064-0.063-0.131-0.099-0.196c0.065-0.038,0.132-0.076,0.198-0.112c0.049-0.004,0.1-0.01,0.149-0.014
				c0.038-0.014,0.073-0.028,0.111-0.043c0.117-0.027,0.235-0.055,0.35-0.083c0.083-0.018,0.163-0.036,0.243-0.053
				c0.092,0.001,0.181,0.003,0.272,0.004c0.061,0.016,0.12,0.031,0.181,0.047c0.156,0.063,0.316,0.127,0.471,0.191
				c0.02,0.003,0.034,0.006,0.049,0.01c-0.01-0.025-0.02-0.05-0.029-0.074c-0.065-0.069-0.131-0.137-0.243-0.256
				c0.17,0.008,0.298,0.013,0.428,0.019c0.073-0.004,0.147-0.007,0.222-0.013c-0.027-0.023-0.059-0.046-0.086-0.07
				c-0.025-0.004-0.053-0.009-0.077-0.013c-0.089-0.015-0.174-0.032-0.263-0.048c-0.096,0.005-0.195,0.011-0.373,0.021
				c0.063-0.207,0.094-0.403,0.181-0.567c0.265-0.486,0.544-0.961,0.831-1.433c0.064-0.104,0.188-0.174,0.27-0.27
				c0.037-0.041,0.037-0.108,0.051-0.164l-0.007-0.005c0.038,0.014,0.095,0.049,0.114,0.036c0.141-0.114,0.275-0.238,0.412-0.358
				c-0.009,0.009-0.018,0.015-0.027,0.02c0.151-0.156,0.307-0.312,0.459-0.468l-0.002,0.007c0.203-0.127,0.402-0.256,0.603-0.385
				c0.042,0.021,0.081,0.041,0.12,0.06c-0.072,0.194-0.145,0.388-0.219,0.582c-0.018,0.035-0.031,0.072-0.045,0.109
				c-0.027,0.089-0.051,0.18-0.074,0.27C387.277,295.197,387.26,295.255,387.242,295.315z M385.86,298.254
				c-0.14,0.137-0.278,0.272-0.421,0.408c0.038,0.027,0.076,0.055,0.111,0.083c0.105-0.164,0.21-0.327,0.311-0.49
				c0.062-0.041,0.122-0.082,0.184-0.124c-0.036-0.024-0.075-0.049-0.115-0.076C385.908,298.123,385.887,298.189,385.86,298.254z
				 M386.871,295.77c0.021,0,0.041-0.003,0.066-0.003c0-0.215,0-0.429,0-0.643c-0.025,0.001-0.046,0.001-0.066,0.001
				C386.871,295.34,386.871,295.555,386.871,295.77z M386.092,297.872c-0.023,0.027-0.045,0.045-0.062,0.065
				c0.02,0.018,0.043,0.048,0.062,0.048c0.021,0.001,0.043-0.03,0.062-0.048C386.137,297.917,386.117,297.898,386.092,297.872z"/>
			<path fill-rule="evenodd" clip-rule="evenodd" fill="#FAFAFB" d="M381.139,318.368c1.096-0.788,1.424-1.979,1.761-3.163
				c0.405-1.412,0.815-2.822,1.204-4.24c0.066-0.247,0.051-0.523,0.034-0.783c-0.026-0.449,0.045-0.865,0.204-1.297
				c0.156-0.431,0.189-0.904,0.268-1.36c0.096-0.539,0.178-1.08,0.264-1.608c0.924,0.581,1.826,1.146,2.763,1.734
				c-0.329,0.623-0.626,1.307-1.038,1.92c-0.326,0.49-0.449,0.99-0.475,1.547c-0.043,0.912-0.172,1.812-0.623,2.634
				c-0.237,0.439-0.507,0.862-0.76,1.296c-0.773,1.325-1.467,2.684-1.746,4.201c-0.046,0.24-0.15,0.314-0.375,0.227
				c-0.271-0.105-0.537-0.219-0.806-0.324c-0.065-0.023-0.141-0.029-0.21-0.043h-0.008c-0.023-0.056-0.05-0.111-0.074-0.168
				l0.004,0.006c-0.021-0.023-0.047-0.047-0.068-0.07l0.003,0.004c-0.089-0.108-0.175-0.217-0.261-0.324l0.004,0.008
				c-0.026-0.064-0.049-0.129-0.071-0.193L381.139,318.368z"/>
			<path fill-rule="evenodd" clip-rule="evenodd" fill="#F5F5F7" d="M381.918,280.372c-0.278-0.035-0.561-0.071-0.84-0.107
				c2.192-0.219,4.336,0.077,6.477,0.596c0.684-1.045,1.295-2.162,2.011-3.209c0.05,0.028,0.099,0.056,0.147,0.085
				c-0.646,1.052-1.287,2.104-1.941,3.172c0.547,0.19,1.09,0.362,1.62,0.569c1.466,0.574,2.817,1.341,4.03,2.332
				c0.058,0.048,0.123,0.086,0.186,0.128c-0.121,0.266-0.242,0.531-0.365,0.8c0.299,0.009,0.559-0.488,0.436-0.809
				c0.969-1.567,1.939-3.133,2.905-4.702c0.354-0.571,0.702-1.145,1.056-1.715c0.053-0.088,0.135-0.163,0.201-0.243
				c0.039,0.027,0.083,0.055,0.125,0.083c-1.385,2.254-2.768,4.51-4.163,6.78c1.116,0.982,2.043,2.113,2.854,3.337
				c0.138,0.209,0.145,0.35,0.006,0.559c-0.365,0.55-0.693,1.126-1.052,1.68c-0.068,0.102-0.225,0.149-0.341,0.221
				c-0.062-0.012-0.127-0.024-0.189-0.037c0.004-0.017,0.011-0.032,0.014-0.049c0-0.006-0.01-0.014-0.014-0.021
				c0-0.214,0-0.427,0-0.64c-0.009-0.619-0.227-1.182-0.531-1.709c-1.055-1.828-2.551-3.141-4.688-3.687
				c-0.176-0.044-0.365-0.038-0.549-0.055c-0.031-0.018-0.064-0.037-0.096-0.056c0.111-0.2,0.219-0.398,0.33-0.598
				c-0.033-0.025-0.069-0.049-0.105-0.075c-0.082,0.105-0.185,0.199-0.244,0.316c-0.133,0.262-0.291,0.467-0.637,0.433
				c-0.081,0.008-0.166,0.018-0.262,0.03c-0.066-0.804-0.505-1.398-1.141-1.875c0.202-0.331,0.386-0.633,0.568-0.937
				c-0.035-0.023-0.066-0.048-0.101-0.073c-0.327,0.199-0.38,0.629-0.661,0.879c-0.056-0.032-0.1-0.06-0.146-0.085
				C385.303,280.842,383.645,280.485,381.918,280.372z M389.553,282.73c0.027,0.018,0.051,0.037,0.074,0.054
				c0.231-0.091,0.501-0.531,0.453-0.875C389.871,282.232,389.713,282.48,389.553,282.73z"/>
			<path fill-rule="evenodd" clip-rule="evenodd" fill="#FAFAFB" d="M393.101,317.74c-0.065-0.039-0.188-0.08-0.187-0.117
				c0.029-1.541-0.708-2.85-1.33-4.195c-0.241-0.52-0.441-1.057-0.712-1.56c-0.196-0.358-0.479-0.671-0.718-1.005
				c-0.135-0.191-0.309-0.371-0.385-0.581c-0.27-0.733-0.5-1.477-0.748-2.224c0.86,0,1.703,0,2.598,0
				c0.131,0.525,0.271,1.107,0.428,1.688c0.053,0.191,0.104,0.4,0.221,0.557c0.623,0.844,0.822,1.826,1.024,2.809
				c0.298,1.437,0.599,2.873,0.886,4.312c0.014,0.056-0.06,0.128-0.09,0.19C393.739,317.52,393.408,317.543,393.101,317.74z"/>
			<path fill-rule="evenodd" clip-rule="evenodd" fill="#FED403" d="M392.434,293.802c0.56-0.13,0.986,0.019,1.335,0.53
				c0.757,1.114,1.515,2.226,2.225,3.368c0.28,0.456,0.44,0.986,0.628,1.492c0.103,0.271,0.041,0.522-0.178,0.758
				c-0.559,0.604-1.382,0.916-2.303,0.833c0.145-0.708,0.051-0.991-0.419-1.273c0.495-0.519,1.062-0.936,1.827-1.045
				c-0.088-0.006-0.172-0.017-0.26-0.012c-0.085,0.005-0.168,0.041-0.256,0.045c-0.121,0.005-0.242-0.007-0.363-0.011
				c0.108-0.067,0.216-0.134,0.322-0.202c-0.013-0.019-0.023-0.039-0.036-0.058c-0.122,0.064-0.245,0.131-0.367,0.197
				c-0.255,0.183-0.403,0.017-0.521-0.168c-0.287-0.448-0.541-0.918-0.853-1.35c-0.146-0.199-0.392-0.33-0.591-0.492l0.012,0.006
				c-0.372-0.345-0.74-0.174-1.135,0.05c0.185-0.878,0.441-1.679,0.877-2.421c0.044-0.072,0.044-0.167,0.062-0.25L392.434,293.802z"
				/>
			<path fill-rule="evenodd" clip-rule="evenodd" fill="#FAD109" d="M390.204,287.749c0.171-0.098,0.267-0.327,0.542-0.241
				c0.305,0.098,0.566,0.23,0.746,0.505c0.653,0.999,0.889,2.066,0.539,3.212c-0.084,0.28-0.287,0.528-0.501,0.751
				c0.083-0.476,0.161-0.951,0.241-1.426c-0.029-0.006-0.061-0.011-0.09-0.015c-0.056,0.31-0.095,0.625-0.168,0.931
				c-0.176,0.716-0.517,1.018-1.18,1.051c0.26-0.605,0.768-1.088,0.826-1.772c0.068-0.818,0.02-1.609-0.448-2.325
				c-0.077-0.12-0.196-0.216-0.329-0.296c0.703,0.918,0.835,1.917,0.54,2.987c-0.171,0.635-0.597,1.081-1.212,1.331
				c-0.211,0.085-0.466,0.058-0.701,0.083l0.01,0.006c-0.053-0.055-0.107-0.109-0.133-0.131c0.207-0.115,0.404-0.227,0.602-0.338
				c0.037-0.025,0.069-0.051,0.105-0.077c0.017-0.017,0.031-0.033,0.051-0.05c0.046-0.051,0.09-0.104,0.137-0.156
				c-0.012-0.014-0.025-0.024-0.042-0.039c-0.049,0.043-0.097,0.086-0.146,0.128c-0.026,0.016-0.053,0.033-0.076,0.048
				c-0.039,0.029-0.078,0.058-0.114,0.087c-0.097,0.034-0.19,0.067-0.369,0.128c0.364-0.482,0.286-0.902,0.022-1.299
				c-0.345-0.525-0.498-1.054-0.123-1.625c0.004-0.003-0.025-0.028-0.039-0.042l-0.01,0.009c0.096-0.067,0.197-0.128,0.281-0.204
				c0.197-0.174,0.389-0.355,0.6-0.548c0.066,0.087,0.105,0.14,0.146,0.192c0.014-0.149,0.028-0.284,0.044-0.417
				C390.037,288.048,390.118,287.898,390.204,287.749z M389.733,291.751c0.422-0.26,0.598-1.134,0.343-1.719
				C390.086,290.655,390.124,291.244,389.733,291.751z M390.992,288.303c-0.081-0.414-0.275-0.625-0.583-0.663
				C390.594,287.85,390.787,288.071,390.992,288.303z"/>
			<path fill-rule="evenodd" clip-rule="evenodd" fill="#F6F6F8" d="M390.4,299.943c0.014-0.014,0.029-0.025,0.049-0.033
				c0.377,0.363,0.779,0.3,1.191,0.065c0.059-0.034,0.105-0.093,0.125-0.191c-0.059,0.022-0.118,0.042-0.174,0.07
				c-0.586,0.295-1.018,0.065-1.055-0.578c-0.043-0.801,0.156-1.544,0.609-2.221c0.037-0.054,0.038-0.129,0.055-0.194l-0.009,0.004
				c0.046-0.025,0.089-0.049,0.134-0.074l-0.002,0.002c0.067-0.047,0.137-0.091,0.203-0.142c0.53-0.394,0.941-0.273,1.062,0.356
				c0.145,0.751,0.021,1.476-0.406,2.135c-0.21-0.106-0.421-0.216-0.636-0.312c-0.073-0.033-0.182-0.058-0.232-0.025
				c-0.058,0.038-0.104,0.149-0.093,0.218c0.021,0.109,0.093,0.211,0.143,0.315c0.014-0.006,0.027-0.011,0.041-0.018
				c-0.033-0.143-0.068-0.284-0.113-0.469c0.318,0.135,0.57,0.244,0.823,0.354c0.085,0.043,0.173,0.087,0.257,0.13
				c0.068,0.064,0.136,0.129,0.203,0.194c0.15,0.233,0.346,0.39,0.646,0.388l-0.004-0.003c0.013,0.163,0.059,0.328,0.031,0.483
				c-0.066,0.411-0.408,0.547-0.765,0.655c-0.106,0.047-0.212,0.095-0.313,0.142c-0.143-0.002-0.287,0.018-0.421-0.012
				c-0.271-0.06-0.575-0.092-0.799-0.235C390.604,300.723,390.45,300.347,390.4,299.943z"/>
			<path fill-rule="evenodd" clip-rule="evenodd" fill="#FAD109" d="M388.623,286.875c0.11-0.006,0.221-0.011,0.329-0.017
				c0.065,0,0.13,0.001,0.194,0.002c0.11,0.005,0.224,0.011,0.338,0.017c0.059,0.017,0.118,0.034,0.178,0.05
				c0.181,0.066,0.361,0.131,0.541,0.196c0,0.094,0,0.188,0.001,0.282c-0.075-0.034-0.152-0.068-0.228-0.102
				c-0.185,0.022-0.37,0.043-0.555,0.066c-0.024,0-0.051,0.001-0.075,0.001c-0.153,0.016-0.305,0.033-0.46,0.05
				c-0.043,0.004-0.091,0.009-0.139,0.012c-0.062,0.016-0.125,0.033-0.188,0.049c-0.028,0.009-0.061,0.017-0.09,0.025
				c0,0.017-0.002,0.036-0.003,0.053c0.14,0,0.278,0,0.417,0c0.223,0,0.444,0,0.662,0c0.112,0.009,0.225,0.018,0.338,0.029
				c0.034,0.012,0.072,0.026,0.106,0.039c0.028,0.008,0.054,0.015,0.082,0.023c-0.045,0.141-0.09,0.281-0.133,0.421
				c-0.376,0.371-0.878,0.451-1.36,0.605c-0.387,0.123-0.719,0.396-1.076,0.605c-0.035,0.02-0.066,0.04-0.1,0.061
				c0.014,0.012,0.026,0.025,0.039,0.037c0.02-0.032,0.043-0.063,0.062-0.095c0.474-0.162,0.943-0.323,1.416-0.485
				c0.012,0.015,0.023,0.029,0.04,0.042c-0.032,0.042-0.062,0.083-0.095,0.125c-0.094,0.067-0.202,0.131-0.049,0.243
				c-0.586,0.664-1.354,1.057-2.188,1.342c-0.036,0.015-0.069,0.03-0.107,0.045c-0.026,0.005-0.059,0.012-0.087,0.017
				c-0.034,0.012-0.069,0.025-0.104,0.037c-0.052,0.008-0.105,0.018-0.157,0.028c-0.06,0.016-0.12,0.032-0.179,0.049
				c-0.07,0.005-0.139,0.012-0.207,0.018c-0.062-0.015-0.124-0.032-0.188-0.047c0.491-0.185,0.965-0.4,1.334-0.707
				c-0.531,0.206-1.088,0.421-1.646,0.638c-0.006-0.042-0.012-0.083-0.018-0.125c0.195-0.092,0.393-0.185,0.592-0.279
				c-0.025-0.04-0.031-0.056-0.037-0.056c-0.033-0.001-0.062,0.003-0.096,0.003c0.001-0.038,0.002-0.076,0.002-0.115
				c0.416-0.725,0.793-1.477,1.264-2.169c0.328-0.488,0.822-0.84,1.446-0.959C388.502,286.91,388.562,286.892,388.623,286.875z
				 M386.057,289.973c-0.004,0.011-0.008,0.021-0.011,0.031c0.006-0.009,0.015-0.015,0.021-0.022c0.003-0.01,0.006-0.02,0.008-0.029
				C386.07,289.96,386.064,289.967,386.057,289.973z M389.744,287.244c0.004-0.009,0.01-0.016,0.014-0.025
				c-0.008,0.006-0.014,0.014-0.018,0.021c-0.004,0.009-0.007,0.016-0.01,0.024C389.734,287.258,389.74,287.251,389.744,287.244z
				 M388.103,287.69c0.015-0.022,0.028-0.043,0.042-0.064c-0.007-0.004-0.014-0.008-0.021-0.011
				c-0.008,0.023-0.017,0.046-0.025,0.07c-0.004,0.009-0.01,0.018-0.014,0.026C388.091,287.704,388.098,287.696,388.103,287.69z
				 M386.479,289.586c0.541-0.389,1.082-0.78,1.585-1.143c-0.679,0.113-1.189,0.548-1.597,1.134L386.479,289.586z M388.727,288.308
				c-0.016-0.007-0.039-0.022-0.049-0.018c-0.012,0.004-0.015,0.028-0.021,0.044c0.016,0.007,0.033,0.023,0.045,0.019
				C388.717,288.347,388.719,288.324,388.727,288.308z"/>
			<path fill-rule="evenodd" clip-rule="evenodd" fill="#F4F4F6" d="M386.85,290.869c-0.213,0.035-0.215-0.09-0.186-0.235
				l-0.006-0.012c0.096-0.012,0.197-0.002,0.279-0.04c0.504-0.236,1-0.481,1.453-0.701c0.117,0.255,0.207,0.526,0.354,0.76
				c0.564,0.895,0.568,0.928-0.139,1.762c0.147,0.047,0.279,0.087,0.414,0.127l-0.01-0.006c0.432,0.036,0.863,0.097,1.295,0.094
				c0.197-0.001,0.315-0.009,0.422,0.176c0.121,0.2-0.005,0.288-0.119,0.398c-0.518,0.503-1.355,0.619-1.895,0.216
				c0.092-0.043,0.18-0.083,0.264-0.124c-0.016-0.022-0.037-0.047-0.053-0.068c-0.088,0.024-0.184,0.043-0.268,0.079
				c-0.391,0.163-0.721,0.104-1.006-0.209c-0.084-0.094-0.188-0.17-0.279-0.255l0.008,0.006c-0.109-0.107-0.221-0.215-0.328-0.322
				l0.014,0.006c-0.018-0.065-0.015-0.147-0.057-0.19c-0.215-0.23-0.32-0.487-0.284-0.797l-0.001,0.008c0.163,0,0.327,0,0.511,0
				c0.004,0.081,0.007,0.15,0.011,0.218c-0.09,0.152-0.335,0.299-0.125,0.479c0.105,0.092,0.324,0.064,0.494,0.092
				c0.002-0.042,0.007-0.083,0.01-0.125c-0.141,0-0.285,0-0.47,0c0.058-0.155,0.101-0.271,0.146-0.387
				c0.115-0.21,0.127-0.41-0.055-0.594C387.115,291.107,386.98,290.988,386.85,290.869z M388.594,291.56c-0.228,0-0.475,0-0.776,0
				C388.155,291.809,388.399,291.786,388.594,291.56z"/>
			<path fill-rule="evenodd" clip-rule="evenodd" fill="#F6F6F8" d="M398.82,292.525c-0.113,0.164-0.228,0.327-0.348,0.502
				c-0.73-1.191-1.42-2.395-2.777-3.065c0.369-0.602,0.732-1.195,1.096-1.792c0.069-0.115,0.176-0.193,0.072-0.385
				c-0.053-0.098,0.149-0.323,0.239-0.491c0.046,0.02,0.09,0.038,0.136,0.056c-0.044,0.104-0.063,0.223-0.133,0.306
				c-0.16,0.196-0.131,0.353-0.005,0.564c0.71,1.2,1.257,2.473,1.708,3.783c0.031,0.089,0.065,0.176,0.107,0.299
				c0.07-0.104,0.119-0.184,0.176-0.257c0.053-0.065,0.114-0.125,0.172-0.187c0.034,0.022,0.071,0.044,0.109,0.068
				c-0.105,0.177-0.211,0.355-0.313,0.534c-0.032,0-0.062-0.001-0.094-0.003l-0.021,0.009c-0.016-0.021-0.027-0.044-0.04-0.067
				C398.878,292.441,398.848,292.482,398.82,292.525z"/>
			<path fill-rule="evenodd" clip-rule="evenodd" fill="#FAD109" d="M381.596,319.107h0.008c0.398,0.246,0.792,0.493,1.236,0.77
				c-0.002,0.01-0.02,0.111-0.053,0.209c-0.268,0.839-0.705,0.983-1.438,0.443c-0.088-0.064-0.06-0.281-0.085-0.428
				c0.025-0.023,0.053-0.05,0.079-0.074c-0.317-0.084-0.63-0.203-0.956-0.247c-0.544-0.075-1.031-0.257-1.455-0.601
				c-0.361-0.291-0.723-0.581-1.096-0.883c0.221-0.27,0.479-0.244,0.727-0.152c0.31,0.113,0.607,0.256,0.908,0.387l0.008-0.005
				c0.023,0.034,0.047,0.069,0.074,0.103l-0.009-0.004c0.143,0.327,0.821,0.738,1.151,0.688c0.23-0.035,0.35-0.173,0.309-0.397
				c-0.026-0.152-0.09-0.297-0.143-0.46c0.094-0.029,0.185-0.059,0.277-0.088l-0.007,0.001c0.022,0.064,0.045,0.129,0.071,0.193
				l-0.004-0.008c0.086,0.107,0.172,0.216,0.261,0.324l-0.003-0.004c-0.003,0.026-0.005,0.053-0.007,0.077
				c0.023-0.002,0.052-0.005,0.075-0.007l-0.004-0.006C381.546,318.996,381.572,319.052,381.596,319.107z"/>
			<path fill-rule="evenodd" clip-rule="evenodd" fill="#FAD109" d="M393.101,317.74c0.308-0.197,0.639-0.221,0.987-0.127
				c0.123,0.16,0.295,0.305,0.361,0.484c0.26,0.697,0.329,1.42,0.162,2.148c-0.121,0.525-0.518,0.838-1.025,0.871
				c-0.307,0.021-0.512-0.109-0.604-0.375c-0.06-0.168-0.104-0.354-0.097-0.526c0.022-0.488,0.074-0.976,0.111-1.462
				c0.02,0.003,0.034,0.015,0.038,0.035c0.021,0.466,0.265,0.773,0.607,0.762c0.361-0.013,0.64-0.338,0.651-0.779
				c0.005-0.168-0.013-0.338-0.006-0.506c0.008-0.192-0.071-0.301-0.268-0.328c-0.066-0.002-0.135-0.007-0.205-0.011l0.014,0.003
				c-0.092,0.001-0.181,0.001-0.273,0.001l0.01-0.003c-0.091,0.031-0.184,0.063-0.273,0.095l-0.014,0.003
				c-0.102,0.012-0.205,0.026-0.395,0.051C392.975,317.938,393.037,317.839,393.101,317.74z"/>
			<path fill-rule="evenodd" clip-rule="evenodd" fill="#FAD109" d="M390.969,293.142c0.182,0.082,0.358,0.161,0.554,0.25
				c-0.723,1.118-1.062,2.348-1.225,3.649c-0.294-0.089-0.583-0.176-0.903-0.27C389.607,295.427,389.81,294.101,390.969,293.142z"/>
			<path fill-rule="evenodd" clip-rule="evenodd" fill="#F5CD10" d="M390.096,293.821c-0.499,0.864-0.76,1.85-0.856,2.904
				c-0.398-0.037-0.786-0.073-1.192-0.11c0.087-0.951,0.312-1.845,0.799-2.666c0.035-0.063,0.143-0.12,0.22-0.122
				C389.41,293.814,389.754,293.821,390.096,293.821z"/>
			<path fill-rule="evenodd" clip-rule="evenodd" fill="#FAD109" d="M383.011,304.579c0.621,0.119,1.085,0.471,1.503,0.875
				c0.078,0.074,0.063,0.249,0.063,0.377c0,0.157-0.028,0.313-0.048,0.507c-1.445-0.486-2.849-0.978-4.102-1.809
				c0.857-0.125,1.568,0.301,2.344,0.568C382.854,304.919,382.932,304.75,383.011,304.579z"/>
			<path fill-rule="evenodd" clip-rule="evenodd" fill="#FAD109" d="M391.201,296.861c-0.115,0.133-0.231,0.265-0.362,0.417
				c-0.112-0.052-0.234-0.109-0.375-0.176c0.14-1.219,0.39-2.395,1.057-3.458c0.102-0.161,0.21-0.219,0.397-0.141
				c0.127,0.054,0.273,0.07,0.4,0.128c0.055,0.024,0.076,0.112,0.115,0.171c0,0,0.008-0.006,0.008-0.008
				c-0.678,0.893-0.933,1.935-1.117,2.999l0.002-0.002c-0.045,0.025-0.088,0.048-0.134,0.074L391.201,296.861z"/>
			<path fill-rule="evenodd" clip-rule="evenodd" fill="#F8CF0D" d="M378.055,304.065c-0.662-0.039-1.025-0.253-1.224-0.694
				c-0.196-0.428-0.108-0.924,0.245-1.226c0.404-0.352,0.832-0.686,1.268-1.002c0.072-0.051,0.27-0.022,0.35,0.04
				c0.137,0.104,0.133,0.251-0.023,0.372c-0.366,0.285-0.73,0.573-1.092,0.865c-0.336,0.273-0.395,0.607-0.164,0.882
				c0.248,0.296,0.578,0.29,0.953,0.027c0.092-0.067,0.263-0.032,0.397-0.044c-0.01,0.142,0.037,0.355-0.042,0.411
				C378.482,303.871,378.197,303.989,378.055,304.065z"/>
			<path fill-rule="evenodd" clip-rule="evenodd" fill="#F8CF0D" d="M388.758,293.718c-0.506,0.841-0.785,1.731-0.862,2.682
				c-0.013,0.174-0.071,0.25-0.257,0.235c-0.137-0.011-0.275-0.002-0.447-0.002c0.009-0.652,0.15-1.275,0.379-1.877
				c0.123-0.325,0.279-0.641,0.447-0.945C388.217,293.462,388.4,293.445,388.758,293.718z"/>
			<path fill-rule="evenodd" clip-rule="evenodd" fill="#EEEEF1" d="M395.56,301.617c1.756-1.012,1.874-2.515,1.209-3.548
				c0.3,0.01,0.503,0.132,0.628,0.374c0.352,0.681,0.242,1.352-0.067,2.009c-0.226,0.486-0.585,0.87-1.108,1.064
				C396.017,301.592,395.779,301.586,395.56,301.617z"/>
			<path fill-rule="evenodd" clip-rule="evenodd" fill="#E3E4E9" d="M390.01,273.096c-1.449,2.445-2.924,4.869-4.464,7.255
				C385.487,280.067,389.726,273.172,390.01,273.096z"/>
			<path fill-rule="evenodd" clip-rule="evenodd" fill="#F4F4F6" d="M379.854,299.966c-0.153,0.14-0.166,0.039-0.18-0.09
				c-0.078-0.688,0.498-1.408,1.256-1.557c0.24-0.015,0.48-0.03,0.721-0.044c0.045-0.001,0.088-0.002,0.131-0.003
				c-0.013,0.067-0.025,0.134-0.045,0.217c0.091,0.009,0.163,0.015,0.234,0.022c-0.15,0.126-0.306,0.251-0.457,0.378
				c-0.016-0.043-0.031-0.086-0.045-0.131c-0.094,0.12-0.21,0.229-0.271,0.363c-0.104,0.227-0.163,0.474-0.265,0.702
				c-0.025,0.065-0.135,0.097-0.205,0.145c-0.035-0.091-0.104-0.183-0.1-0.271c0.014-0.239,0.054-0.477,0.085-0.716
				c-0.056-0.021-0.112-0.041-0.169-0.062c-0.137,0.237-0.275,0.473-0.415,0.709c-0.063,0.105-0.128,0.212-0.19,0.319
				C379.912,299.955,379.881,299.96,379.854,299.966z"/>
			<path fill-rule="evenodd" clip-rule="evenodd" fill="#EEEEF1" d="M398.966,292.458c0.032,0.002,0.062,0.003,0.094,0.003
				c0.044,0.266,0.072,0.536,0.14,0.796c0.417,1.588,0.761,3.188,0.811,4.834c-0.067-0.247-0.135-0.492-0.201-0.737
				c-0.062-0.284-0.125-0.564-0.187-0.848c-0.301-0.982-0.585-1.968-0.913-2.941c-0.078-0.232-0.104-0.392,0.039-0.598
				C398.849,292.816,398.895,292.629,398.966,292.458z"/>
			<path fill-rule="evenodd" clip-rule="evenodd" fill="#E3E4E9" d="M390.406,281.341c1.379-2.243,2.76-4.485,4.139-6.729
				C394.657,274.91,390.716,281.31,390.406,281.341z"/>
			<path fill-rule="evenodd" clip-rule="evenodd" fill="#E3E4E9" d="M401.594,280.362c-1.366,2.221-2.732,4.442-4.102,6.66
				c-0.02,0.032-0.105,0.029-0.221-0.018c1.384-2.246,2.766-4.493,4.15-6.74C401.479,280.296,401.537,280.33,401.594,280.362z"/>
			<path fill-rule="evenodd" clip-rule="evenodd" fill="#E3E4E9" d="M383.186,272.055c0.109,0.306-3.429,6.06-3.747,6.097
				C380.686,276.121,381.938,274.087,383.186,272.055z"/>
			<path fill-rule="evenodd" clip-rule="evenodd" fill="#E3E4E9" d="M386.774,273.812c-1.224,1.983-2.446,3.965-3.671,5.945
				c-0.022,0.033-0.105,0.03-0.269,0.069c1.288-2.092,2.524-4.103,3.763-6.115C386.656,273.745,386.716,273.78,386.774,273.812z"/>
			<path fill-rule="evenodd" clip-rule="evenodd" fill="#E3E4E9" d="M401.977,279.743c-0.116-0.298,3.338-5.911,3.648-5.938
				C404.407,275.784,403.193,277.762,401.977,279.743z"/>
			<path fill-rule="evenodd" clip-rule="evenodd" fill="#E3E3E9" d="M404.91,292.656c0.078-0.138,0.127-0.236,0.186-0.331
				c1.08-1.758,2.16-3.517,3.244-5.271c0.051-0.082,0.135-0.143,0.205-0.213c0.036,0.03,0.074,0.061,0.108,0.091
				c-1.177,1.904-2.354,3.809-3.536,5.71C405.104,292.665,405.021,292.651,404.91,292.656z"/>
			<path fill-rule="evenodd" clip-rule="evenodd" fill="#ACAFD5" d="M381.646,299.385c0.812-0.075,1.474,0.373,2.219,0.625
				c-0.309,0.259-0.615,0.518-0.941,0.792c-0.383-0.519-0.824-0.973-1.479-1.167c0.07-0.088,0.138-0.17,0.205-0.252L381.646,299.385
				z"/>
			<path fill-rule="evenodd" clip-rule="evenodd" fill="#EEEEF1" d="M392.576,299.53c-0.067-0.064-0.135-0.129-0.203-0.194
				c0.029-0.128,0.047-0.261,0.096-0.385c0.318-0.837,0.5-1.674,0.02-2.501c0.045-0.01,0.096-0.021,0.148-0.033l-0.012-0.006
				c0.004,0.033-0.002,0.082,0.017,0.095c0.674,0.463,0.718,1.125,0.573,1.816c-0.078,0.355-0.232,0.698-0.376,1.036
				C392.803,299.438,392.668,299.474,392.576,299.53z"/>
			<path fill-rule="evenodd" clip-rule="evenodd" fill="#E3E3E9" d="M406.738,277.339c-0.014,0.076-0.008,0.162-0.047,0.225
				c-1.037,1.696-2.078,3.39-3.123,5.082c-0.045,0.069-0.129,0.113-0.196,0.169c-0.031-0.025-0.062-0.049-0.094-0.076
				c1.112-1.811,2.226-3.621,3.337-5.432C406.658,277.318,406.699,277.328,406.738,277.339z"/>
			<path fill-rule="evenodd" clip-rule="evenodd" fill="#F4F4F6" d="M393.277,318.025l0.014-0.003
				c0.09-0.031,0.183-0.063,0.273-0.095l-0.01,0.003c0.093,0,0.182,0,0.273-0.001l-0.014-0.003c0.07,0.021,0.139,0.04,0.206,0.062
				c0.325,0.305,0.229,1.139-0.159,1.34c-0.25,0.131-0.466,0.082-0.622-0.152c-0.079-0.121-0.138-0.257-0.205-0.387
				c-0.004-0.021-0.019-0.032-0.038-0.035C392.943,318.458,392.922,318.174,393.277,318.025z"/>
			<path fill-rule="evenodd" clip-rule="evenodd" fill="#F5CD10" d="M386.723,291.542l0.001-0.008
				c-0.208,0.285-0.089,0.555,0.044,0.824c-0.578-0.013-1.41-0.626-1.5-1.129c0.334-0.141,0.678-0.282,1.018-0.425
				c0.018,0.021,0.036,0.044,0.052,0.067c-0.042,0.079-0.08,0.158-0.139,0.271c0.093-0.041,0.163-0.071,0.219-0.095
				c0.033,0.127,0.065,0.261,0.1,0.393c-0.013,0.022-0.028,0.044-0.042,0.066c0.027-0.007,0.052-0.012,0.08-0.019
				C386.607,291.506,386.665,291.523,386.723,291.542z"/>
			<path fill-rule="evenodd" clip-rule="evenodd" fill="#E3E4E9" d="M395.152,277.169c-1.01,1.646-2.024,3.291-3.071,4.992
				c-0.083-0.268,2.08-3.975,2.799-4.929c0.042-0.06,0.13-0.09,0.196-0.134C395.1,277.122,395.127,277.145,395.152,277.169z"/>
			<path fill-rule="evenodd" clip-rule="evenodd" fill="#ACAFD5" d="M385.059,296.032c0.045,0.021,0.092,0.042,0.173,0.081
				c-0.142,0.244-0.361,0.491-0.438,0.774c-0.17,0.62-0.51,0.946-1.197,0.911c-0.197-0.008-0.396,0.083-0.663,0.146
				c0.41-0.349,0.772-0.65,1.128-0.959c0.06-0.054,0.239-0.119,0.032-0.219c0.029-0.014,0.063-0.027,0.093-0.042
				c-0.002,0.026-0.008,0.079-0.006,0.079c0.168,0.027,0.412-0.222,0.395-0.397v-0.001c0.186,0.06,0.473-0.162,0.49-0.38
				L385.059,296.032z"/>
			<path fill-rule="evenodd" clip-rule="evenodd" fill="#E3E3E9" d="M402.127,287.105c0.125,0.295-2.474,4.526-2.833,4.612
				C400.266,290.139,401.195,288.621,402.127,287.105z"/>
			<path fill-rule="evenodd" clip-rule="evenodd" fill="#E3E4E9" d="M375.672,284.37c0.194-0.586,2.662-4.461,2.96-4.522
				c-0.952,1.542-1.864,3.026-2.784,4.506C375.828,284.382,375.738,284.366,375.672,284.37z"/>
			<path fill-rule="evenodd" clip-rule="evenodd" fill="#E3E3E9" d="M405.373,281.995c0.002-0.287,2.605-4.474,2.896-4.497
				c-0.932,1.518-1.864,3.035-2.797,4.55C405.438,282.032,405.406,282.014,405.373,281.995z"/>
			<path fill-rule="evenodd" clip-rule="evenodd" fill="#E3E4E9" d="M400.303,287.676c-0.004-0.301,2.414-4.184,2.64-4.234
				C402.908,283.752,400.516,287.587,400.303,287.676z"/>
			<path fill-rule="evenodd" clip-rule="evenodd" fill="#E3E4E9" d="M395.302,276.642c0.032-0.087,0.052-0.183,0.101-0.261
				c0.734-1.199,1.471-2.397,2.213-3.591c0.047-0.075,0.146-0.116,0.223-0.173c-0.021,0.09-0.012,0.196-0.057,0.271
				c-0.73,1.202-1.468,2.399-2.205,3.596c-0.047,0.076-0.109,0.142-0.164,0.211C395.376,276.677,395.338,276.659,395.302,276.642z"
				/>
			<path fill-rule="evenodd" clip-rule="evenodd" fill="#E3E4E9" d="M401.35,267.089c-0.035,0.089-0.051,0.185-0.1,0.264
				c-0.705,1.153-1.418,2.304-2.125,3.456c-0.02,0.026-0.027,0.065-0.051,0.08c-0.062,0.039-0.131,0.065-0.197,0.097
				c0.006-0.066-0.012-0.144,0.021-0.195c0.205-0.349,0.424-0.691,0.635-1.036c0.512-0.823,1.018-1.65,1.525-2.476
				c0.053-0.083,0.116-0.162,0.176-0.243C401.271,267.054,401.309,267.072,401.35,267.089z"/>
			<path fill-rule="evenodd" clip-rule="evenodd" fill="#E3E3E9" d="M391.979,273.77c0.289-0.725,2.215-3.729,2.482-3.74
				c-0.756,1.227-1.516,2.454-2.275,3.679C392.166,273.743,392.08,273.741,391.979,273.77z"/>
			<path fill-rule="evenodd" clip-rule="evenodd" fill="#E3E4E9" d="M404.654,283.105c0.073,0.222-1.927,3.542-2.224,3.737
				C402.386,286.649,404.264,283.479,404.654,283.105z"/>
			<path fill-rule="evenodd" clip-rule="evenodd" fill="#E3E3E9" d="M372.703,289.151c0.623-1.029,1.246-2.058,1.91-3.152
				C374.703,286.337,373.021,289.125,372.703,289.151z"/>
			<path fill-rule="evenodd" clip-rule="evenodd" fill="#F8CF0D" d="M382.833,299.268c-0.28,0.078-0.556,0.105-0.785-0.127
				l-0.007,0.007c0.092-0.182,0.213-0.355,0.26-0.545c0.073-0.28,0.353-0.496,0.598-0.408l-0.002-0.004
				c0.229,0.375,0.125,0.733-0.065,1.084L382.833,299.268z"/>
			<path fill-rule="evenodd" clip-rule="evenodd" fill="#E3E4E9" d="M388.965,269.824c0.568-0.925,1.136-1.852,1.703-2.777
				c0.034,0.009,0.064,0.02,0.098,0.029c0.004,0.062,0.031,0.139,0.006,0.184c-0.524,0.862-1.057,1.722-1.592,2.581
				c-0.016,0.028-0.068,0.037-0.105,0.054C389.039,269.872,389,269.847,388.965,269.824z"/>
			<path fill-rule="evenodd" clip-rule="evenodd" fill="#E3E4E9" d="M386.848,273.383c0.546-0.944,1.078-1.894,1.729-2.77
				C388.62,270.917,387.116,273.336,386.848,273.383z"/>
			<path fill-rule="evenodd" clip-rule="evenodd" fill="#F8CF0D" d="M393.223,299.918c-0.029-0.208,0.176-0.363,0.385-0.296
				c0.368,0.115,0.598,0.801,0.357,1.103c-0.04,0.05-0.144,0.062-0.223,0.065c-0.139,0.004-0.277-0.012-0.428-0.02
				c0.041-0.296,0.324-0.617-0.096-0.855L393.223,299.918z"/>
			<path fill-rule="evenodd" clip-rule="evenodd" fill="#E3E4E9" d="M400.171,300.345c0.497-0.812,0.995-1.624,1.492-2.436
				c0.034,0.015,0.071,0.032,0.106,0.046c0.043,0.245-0.166,0.407-0.27,0.601c-0.121,0.225-0.265,0.436-0.398,0.653
				c-0.127,0.208-0.258,0.417-0.389,0.625c-0.125,0.2-0.252,0.401-0.377,0.601C400.279,300.406,400.227,300.376,400.171,300.345z"/>
			<path fill-rule="evenodd" clip-rule="evenodd" fill="#E3E3E9" d="M378.078,297.151c-0.054,0.099-0.105,0.199-0.164,0.295
				c-0.332,0.543-0.664,1.087-1.004,1.626c-0.035,0.057-0.125,0.081-0.188,0.12c0-0.064-0.027-0.144,0.002-0.191
				c0.367-0.611,0.74-1.216,1.119-1.821c0.031-0.046,0.104-0.069,0.158-0.104C378.025,297.103,378.055,297.127,378.078,297.151z"/>
			<path fill-rule="evenodd" clip-rule="evenodd" fill="#EEEEF1" d="M379.479,318.526l-0.008,0.005c0.42,0,0.842,0,1.287,0
				c0.016,0.047,0.049,0.115,0.053,0.186c0.011,0.109,0.041,0.277-0.016,0.314c-0.086,0.059-0.255,0.068-0.357,0.027
				c-0.307-0.126-0.595-0.287-0.894-0.434l0.009,0.004C379.525,318.596,379.502,318.561,379.479,318.526z"/>
			<path fill-rule="evenodd" clip-rule="evenodd" fill="#E1E1E7" d="M394.369,283.916c0.518-0.394,1.074-0.627,1.717-0.363
				c0.268,0.108,0.414,0.331,0.346,0.742C395.858,283.342,395.109,283.686,394.369,283.916z"/>
			<path fill-rule="evenodd" clip-rule="evenodd" fill="#DFDFE6" d="M401.639,292.399c-0.813-0.663-1.535-0.352-2.254,0.057
				c0.074-0.325,0.867-0.716,1.392-0.688C401.285,291.793,401.584,291.986,401.639,292.399z"/>
			<path fill-rule="evenodd" clip-rule="evenodd" fill="#E5E5EB" d="M397.406,287.628c0.494-0.485,1.067-0.721,1.766-0.52
				c0.299,0.086,0.398,0.206,0.441,0.5C398.861,287.015,398.141,287.252,397.406,287.628z"/>
			<path fill-rule="evenodd" clip-rule="evenodd" fill="#E3E3E9" d="M389.734,277.341c0.129-0.213,0.256-0.426,0.385-0.638
				c0.229-0.371,0.452-0.744,0.689-1.111c0.031-0.052,0.125-0.07,0.19-0.104c-0.003,0.064,0.017,0.143-0.013,0.192
				c-0.326,0.538-0.652,1.072-0.99,1.601c-0.035,0.059-0.126,0.087-0.19,0.13C389.783,277.386,389.76,277.364,389.734,277.341z"/>
			<path fill-rule="evenodd" clip-rule="evenodd" fill="#E1E1E7" d="M408.988,286.276c-0.092-0.169,0.73-1.633,1.094-1.954
				C410.168,284.495,409.35,285.955,408.988,286.276z"/>
			<path fill-rule="evenodd" clip-rule="evenodd" fill="#F5CD10" d="M386.362,294.685c-0.112,0.026-0.229,0.052-0.335,0.076
				c-0.012-0.453,0.548-0.928,1.235-0.977c-0.132,0.114-0.251,0.204-0.354,0.308c-0.024,0.028-0.001,0.101,0,0.153l0.007-0.007
				c-0.025-0.008-0.049-0.017-0.078-0.026c-0.008,0.033-0.018,0.066-0.026,0.099c-0.022,0.018-0.038,0.038-0.057,0.058
				c-0.2-0.044-0.31,0.039-0.339,0.26c-0.014,0.015-0.027,0.031-0.037,0.049L386.362,294.685z"/>
			<path fill-rule="evenodd" clip-rule="evenodd" fill="#DFDFE6" d="M385.177,280.281c-0.392-1.429-0.392-1.429-0.999-1.711
				c0.259-0.072,0.514-0.008,0.713,0.177C385.219,279.054,385.366,279.849,385.177,280.281z"/>
			<path fill-rule="evenodd" clip-rule="evenodd" fill="#E3E3E9" d="M377.502,293.48c0.001,0.02,0.002,0.042,0.004,0.062
				c-0.371,0.537-0.652,1.135-1.064,1.644c-0.04-0.025-0.084-0.051-0.129-0.077c0.345-0.582,0.686-1.162,1.027-1.745
				c0.001,0.001,0.005-0.004,0.005-0.004C377.397,293.4,377.45,293.44,377.502,293.48z"/>
			<path fill-rule="evenodd" clip-rule="evenodd" fill="#E1E1E7" d="M400.053,288.264c-0.337,0.555-0.67,1.108-1.027,1.699
				c-0.066-0.091-0.131-0.148-0.12-0.165c0.319-0.543,0.649-1.083,0.977-1.621C399.938,288.207,399.996,288.236,400.053,288.264z"/>
			<path fill-rule="evenodd" clip-rule="evenodd" fill="#E1E1E7" d="M396.105,272.448c-0.303,0.494-0.606,0.99-0.91,1.484
				c-0.114-0.264,0.562-1.404,0.814-1.543C396.043,272.409,396.072,272.429,396.105,272.448z"/>
			<path fill-rule="evenodd" clip-rule="evenodd" fill="#DBDBE3" d="M379.854,299.966c0.027-0.006,0.059-0.011,0.086-0.018
				c0.186-0.101,0.37-0.2,0.556-0.299c0.015,0.02,0.032,0.039,0.048,0.06c-0.568,0.465-1.139,0.927-1.707,1.392
				c-0.03-0.037-0.064-0.073-0.094-0.109c0.316-0.266,0.635-0.528,0.945-0.799C379.757,300.132,379.799,300.042,379.854,299.966z"/>
			<path fill-rule="evenodd" clip-rule="evenodd" fill="#DFDFE6" d="M390.152,272.75c0.155-0.55,0.529-0.991,0.816-1.514
				C391.096,271.458,390.526,272.498,390.152,272.75z"/>
			<path fill-rule="evenodd" clip-rule="evenodd" fill="#EEEEF1" d="M391.448,280.467c0.628,0.255,0.728,0.917,0.3,1.604
				C391.77,281.531,391.896,280.959,391.448,280.467z"/>
			<path fill-rule="evenodd" clip-rule="evenodd" fill="#E5E5EB" d="M380.432,300.759c-0.145-0.098-0.294-0.199-0.5-0.34
				c0.23-0.144,0.411-0.299,0.621-0.367c0.092-0.029,0.243,0.122,0.368,0.192c-0.015,0.038-0.03,0.073-0.048,0.11
				c-0.141-0.008-0.281-0.017-0.427-0.026c0.03,0.13,0.054,0.253,0.082,0.375C380.494,300.723,380.465,300.741,380.432,300.759z"/>
			<path fill-rule="evenodd" clip-rule="evenodd" fill="#DFDFE6" d="M375.715,284.561c-0.244,0.407-0.487,0.814-0.749,1.247
				c-0.129-0.222,0.312-1.05,0.638-1.301C375.639,284.525,375.677,284.543,375.715,284.561z"/>
			<path fill-rule="evenodd" clip-rule="evenodd" fill="#E3E4E9" d="M378.881,295.573c0.064,0.234-0.403,1.071-0.666,1.236
				C378.165,296.614,378.555,295.882,378.881,295.573z"/>
			<path fill-rule="evenodd" clip-rule="evenodd" fill="#EEEEF1" d="M382.048,299.141c-0.134,0.082-0.268,0.162-0.401,0.245
				l0.004-0.004c-0.11,0.013-0.223,0.027-0.328,0.042c-0.024-0.027-0.045-0.055-0.066-0.082c0.289-0.239,0.58-0.478,0.871-0.715
				l0.005-0.006c-0.03,0.176-0.059,0.352-0.091,0.528L382.048,299.141z"/>
			<path fill-rule="evenodd" clip-rule="evenodd" fill="#E3E4E9" d="M384.412,270.488c-0.22,0.354-0.436,0.708-0.653,1.062
				C383.635,271.274,384.075,270.545,384.412,270.488z"/>
			<path fill-rule="evenodd" clip-rule="evenodd" fill="#E3E3E9" d="M379.346,278.597c-0.174,0.34-0.305,0.705-0.65,1.001
				C378.694,279.259,379.08,278.652,379.346,278.597z"/>
			<path fill-rule="evenodd" clip-rule="evenodd" fill="#E1E1E7" d="M398.689,271.388c-0.195,0.323-0.388,0.647-0.604,1.012
				c-0.115-0.249,0.182-0.811,0.491-1.069C398.612,271.349,398.652,271.368,398.689,271.388z"/>
			<path fill-rule="evenodd" clip-rule="evenodd" fill="#E1E1E7" d="M398.685,275.925c0.058,0.236-0.281,0.827-0.538,0.982
				C398.104,276.701,398.379,276.19,398.685,275.925z"/>
			<path fill-rule="evenodd" clip-rule="evenodd" fill="#EEEEF1" d="M386.362,294.685l0.017-0.007l0.006,0.008
				c0.034,0.013,0.073,0.025,0.111,0.037c-0.02,0.032-0.038,0.064-0.056,0.095c0-0.002,0.008-0.016,0.008-0.016l0.005,0.018
				c-0.166,0.149-0.328,0.299-0.495,0.447l0.007,0.005c-0.231,0.177-0.462,0.355-0.69,0.533c-0.025-0.045-0.075-0.124-0.065-0.132
				c0.164-0.143,0.338-0.278,0.512-0.414c0.024-0.021,0.05-0.043,0.072-0.066C385.982,295.024,386.172,294.853,386.362,294.685z"/>
			<path fill-rule="evenodd" clip-rule="evenodd" fill="#E1E1E7" d="M402.93,295.846c0.166-0.267,0.326-0.528,0.489-0.785
				c0.021-0.026,0.079-0.051,0.106-0.042c0.037,0.01,0.084,0.077,0.079,0.085c-0.189,0.266-0.384,0.529-0.577,0.792
				C403.025,295.896,403.009,295.887,402.93,295.846z"/>
			<path fill-rule="evenodd" clip-rule="evenodd" fill="#DFDFE6" d="M396.93,301.343c-0.037,0.186-0.07,0.373-0.118,0.624
				c-0.169-0.104-0.277-0.173-0.39-0.241c0.141-0.145,0.279-0.29,0.422-0.435C396.871,301.309,396.901,301.326,396.93,301.343z"/>
			<path fill-rule="evenodd" clip-rule="evenodd" fill="#D0D0DB" d="M386.85,290.869c0.131,0.119,0.266,0.238,0.395,0.357
				c-0.057,0.054-0.143,0.164-0.165,0.153c-0.118-0.058-0.229-0.138-0.317-0.231c-0.021-0.022,0.04-0.122,0.062-0.186
				C386.832,290.932,386.841,290.901,386.85,290.869z"/>
			<path fill-rule="evenodd" clip-rule="evenodd" fill="#EEEEF1" d="M383.364,297.241c0.347-0.3,0.694-0.6,1.044-0.899
				c0.065-0.001,0.132-0.002,0.199-0.002l0.003,0.003c-0.011,0.021-0.021,0.042-0.036,0.061v0.001
				c-0.13,0.106-0.26,0.212-0.389,0.318c-0.029,0.015-0.063,0.029-0.093,0.042c-0.187,0.16-0.37,0.321-0.567,0.472
				C383.494,297.264,383.42,297.241,383.364,297.241z"/>
			<path fill-rule="evenodd" clip-rule="evenodd" fill="#DFDFE6" d="M391.33,275.116c-0.139-0.219,0.064-0.622,0.387-0.817
				C391.717,274.64,391.473,274.829,391.33,275.116z"/>
			<path fill-rule="evenodd" clip-rule="evenodd" fill="#EEEEF1" d="M382.312,298.101c0.349-0.288,0.703-0.575,1.057-0.863
				c0.01,0.037,0.039,0.097,0.026,0.108c-0.32,0.272-0.644,0.542-0.974,0.804C382.408,298.162,382.348,298.119,382.312,298.101z"/>
			<path fill-rule="evenodd" clip-rule="evenodd" fill="#E3E4E9" d="M398.154,304.748c-0.111-0.141-0.216-0.217-0.212-0.286
				c0.007-0.075,0.11-0.144,0.173-0.215c0.067,0.064,0.176,0.12,0.189,0.192C398.319,304.507,398.232,304.595,398.154,304.748z"/>
			<path fill-rule="evenodd" clip-rule="evenodd" fill="#DBDBE3" d="M401.814,297.663c0.156-0.245,0.278-0.437,0.4-0.628
				c0.032,0.01,0.068,0.019,0.105,0.028c-0.021,0.088-0.016,0.195-0.068,0.261C402.154,297.453,402.16,297.71,401.814,297.663z"/>
			<path fill-rule="evenodd" clip-rule="evenodd" fill="#DBDBE3" d="M399.596,306.351c-0.094-0.145-0.188-0.222-0.182-0.293
				c0.007-0.071,0.11-0.135,0.17-0.203c0.066,0.064,0.179,0.121,0.188,0.194C399.781,306.118,399.691,306.201,399.596,306.351z"/>
			<path fill-rule="evenodd" clip-rule="evenodd" fill="#DBDBE3" d="M402.775,312.01c-0.1-0.137-0.195-0.211-0.191-0.283
				c0.002-0.071,0.105-0.137,0.164-0.207c0.071,0.061,0.191,0.114,0.202,0.184C402.959,311.773,402.863,311.86,402.775,312.01z"/>
			<path fill-rule="evenodd" clip-rule="evenodd" fill="#DBDBE3" d="M399.658,304.828c0.082,0.132,0.176,0.22,0.168,0.294
				c-0.009,0.071-0.128,0.13-0.197,0.192c-0.066-0.073-0.183-0.143-0.188-0.219C399.438,305.025,399.555,304.949,399.658,304.828z"
				/>
			<path fill-rule="evenodd" clip-rule="evenodd" fill="#E3E3E9" d="M402.268,311.394c-0.088,0.051-0.184,0.154-0.252,0.14
				c-0.08-0.02-0.183-0.145-0.179-0.22c0-0.064,0.134-0.173,0.214-0.177c0.095-0.005,0.189,0.083,0.287,0.131
				C402.312,311.311,402.289,311.352,402.268,311.394z"/>
			<path fill-rule="evenodd" clip-rule="evenodd" fill="#E8E8ED" d="M401.575,310.73c-0.116,0.087-0.196,0.189-0.255,0.18
				c-0.082-0.015-0.148-0.113-0.221-0.176c0.066-0.068,0.129-0.184,0.199-0.188C401.373,310.541,401.453,310.643,401.575,310.73z"/>
			<path fill-rule="evenodd" clip-rule="evenodd" fill="#E8E8ED" d="M400.759,310.013c-0.029,0.108-0.053,0.224-0.105,0.323
				c-0.011,0.021-0.17,0.012-0.198-0.024c-0.049-0.067-0.086-0.204-0.052-0.245c0.06-0.068,0.185-0.084,0.283-0.121
				C400.709,309.967,400.736,309.989,400.759,310.013z"/>
			<path fill-rule="evenodd" clip-rule="evenodd" fill="#DFDFE6" d="M404.941,317.701c-0.131,0.092-0.211,0.188-0.287,0.184
				c-0.062-0.004-0.161-0.125-0.16-0.194c0-0.057,0.118-0.147,0.193-0.159C404.748,317.523,404.82,317.615,404.941,317.701z"/>
			<path fill-rule="evenodd" clip-rule="evenodd" fill="#DBDBE3" d="M400.35,313.287c0.075,0.136,0.152,0.218,0.146,0.295
				c-0.003,0.055-0.146,0.157-0.18,0.141c-0.074-0.033-0.159-0.123-0.168-0.198C400.141,313.471,400.248,313.402,400.35,313.287z"/>
			<path fill-rule="evenodd" clip-rule="evenodd" fill="#E8E8ED" d="M405.108,282.286c0.095,0.312-0.052,0.52-0.358,0.552
				C404.885,282.628,404.996,282.457,405.108,282.286z"/>
			<path fill-rule="evenodd" clip-rule="evenodd" fill="#E8E8ED" d="M401.422,307.698c0.08,0.149,0.17,0.235,0.152,0.302
				c-0.016,0.072-0.126,0.125-0.195,0.188c-0.062-0.072-0.166-0.141-0.174-0.217C401.2,307.906,401.309,307.834,401.422,307.698z"/>
			<path fill-rule="evenodd" clip-rule="evenodd" fill="#E1E1E7" d="M401.412,315.939c-0.122,0.07-0.201,0.15-0.258,0.141
				c-0.074-0.014-0.131-0.107-0.188-0.166c0.067-0.062,0.13-0.16,0.208-0.176C401.222,315.728,401.298,315.839,401.412,315.939z"/>
			<path fill-rule="evenodd" clip-rule="evenodd" fill="#E5E5EB" d="M402.309,312.541c-0.085-0.133-0.182-0.213-0.176-0.288
				c0.005-0.061,0.123-0.114,0.197-0.173c0.057,0.072,0.148,0.141,0.166,0.223C402.51,312.354,402.404,312.426,402.309,312.541z"/>
			<path fill-rule="evenodd" clip-rule="evenodd" fill="#EEEEF1" d="M405.914,319.42c0.098,0.126,0.202,0.201,0.195,0.264
				c-0.008,0.075-0.115,0.139-0.18,0.205c-0.066-0.069-0.162-0.13-0.188-0.211C405.729,319.629,405.822,319.548,405.914,319.42z"/>
			<path fill-rule="evenodd" clip-rule="evenodd" fill="#DFDFE6" d="M400.445,307.778c0.102,0.111,0.207,0.185,0.197,0.233
				c-0.016,0.078-0.112,0.142-0.176,0.211c-0.062-0.061-0.16-0.114-0.176-0.185C400.276,307.981,400.367,307.902,400.445,307.778z"
				/>
			<path fill-rule="evenodd" clip-rule="evenodd" fill="#E8E8ED" d="M402.08,308.449c-0.088-0.123-0.178-0.197-0.173-0.264
				c0.004-0.068,0.101-0.178,0.16-0.18c0.07-0.002,0.2,0.099,0.195,0.15C402.256,308.238,402.168,308.318,402.08,308.449z"/>
			<path fill-rule="evenodd" clip-rule="evenodd" fill="#EEEEF1" d="M399.25,308.691c-0.141,0.095-0.223,0.193-0.287,0.184
				c-0.076-0.012-0.188-0.113-0.19-0.181c-0.003-0.062,0.111-0.173,0.184-0.183C399.023,308.502,399.105,308.599,399.25,308.691z"/>
			<path fill-rule="evenodd" clip-rule="evenodd" fill="#E5E5EB" d="M402.059,309.025c-0.115,0.087-0.189,0.184-0.246,0.174
				c-0.082-0.015-0.15-0.104-0.223-0.161c0.061-0.071,0.115-0.189,0.189-0.199C401.847,308.83,401.929,308.936,402.059,309.025z"/>
			<path fill-rule="evenodd" clip-rule="evenodd" fill="#DFDFE6" d="M398.683,306.119c0.082,0.133,0.167,0.213,0.155,0.271
				c-0.015,0.067-0.119,0.116-0.184,0.173c-0.056-0.062-0.15-0.124-0.152-0.19C398.496,306.31,398.591,306.242,398.683,306.119z"/>
			<path fill-rule="evenodd" clip-rule="evenodd" fill="#DBDBE3" d="M400.014,315.627c-0.123,0.091-0.202,0.193-0.254,0.181
				c-0.08-0.02-0.17-0.104-0.2-0.185c-0.017-0.033,0.101-0.168,0.158-0.167C399.799,315.456,399.877,315.541,400.014,315.627z"/>
			<path fill-rule="evenodd" clip-rule="evenodd" fill="#E3E4E9" d="M399.35,314.773c0.096,0.145,0.182,0.221,0.183,0.297
				c0.001,0.061-0.122,0.182-0.159,0.172c-0.085-0.021-0.191-0.104-0.207-0.176C399.154,315.001,399.256,314.916,399.35,314.773z"/>
			<path fill-rule="evenodd" clip-rule="evenodd" fill="#E1E1E7" d="M399.9,311.971c0.083,0.132,0.168,0.209,0.156,0.268
				c-0.019,0.067-0.116,0.119-0.18,0.174c-0.057-0.062-0.154-0.123-0.161-0.19C399.711,312.163,399.807,312.096,399.9,311.971z"/>
			<path fill-rule="evenodd" clip-rule="evenodd" fill="#E5E5EB" d="M400.174,307.08c0.084,0.105,0.188,0.178,0.184,0.238
				c-0.008,0.07-0.113,0.133-0.177,0.197c-0.061-0.062-0.167-0.121-0.172-0.186C400.004,307.264,400.095,307.189,400.174,307.08z"/>
			<path fill-rule="evenodd" clip-rule="evenodd" fill="#E8E8ED" d="M401.967,307.201c-0.137,0.075-0.219,0.154-0.299,0.154
				c-0.07,0.002-0.142-0.086-0.216-0.135c0.06-0.078,0.104-0.189,0.181-0.219C401.682,306.981,401.783,307.086,401.967,307.201z"/>
			<path fill-rule="evenodd" clip-rule="evenodd" fill="#E8E8ED" d="M399.57,303.72c0.105,0.108,0.228,0.184,0.214,0.231
				c-0.019,0.083-0.118,0.148-0.185,0.222c-0.064-0.056-0.18-0.107-0.183-0.166C399.412,303.931,399.498,303.849,399.57,303.72z"/>
			<path fill-rule="evenodd" clip-rule="evenodd" fill="#DBDBE3" d="M402.246,310.521c-0.127,0.068-0.209,0.15-0.271,0.138
				c-0.07-0.015-0.172-0.114-0.17-0.176c0.001-0.063,0.119-0.182,0.169-0.173C402.055,310.324,402.121,310.42,402.246,310.521z"/>
			<path fill-rule="evenodd" clip-rule="evenodd" fill="#E3E4E9" d="M403.77,294.506c0.099-0.16,0.194-0.321,0.295-0.48
				c0.045,0.024,0.089,0.047,0.135,0.073c-0.088,0.164-0.18,0.327-0.27,0.492C403.877,294.562,403.822,294.534,403.77,294.506z"/>
			<path fill-rule="evenodd" clip-rule="evenodd" fill="#E5E5EB" d="M401.17,314.23c0.072,0.121,0.152,0.194,0.147,0.262
				c-0.005,0.066-0.097,0.125-0.151,0.188c-0.066-0.066-0.172-0.124-0.188-0.201C400.966,314.426,401.072,314.35,401.17,314.23z"/>
			<path fill-rule="evenodd" clip-rule="evenodd" fill="#DFDFE6" d="M400.488,305.31c0.102,0.116,0.209,0.186,0.203,0.242
				c-0.01,0.078-0.105,0.145-0.163,0.217c-0.065-0.053-0.177-0.102-0.185-0.16C400.338,305.533,400.418,305.449,400.488,305.31z"/>
			<path fill-rule="evenodd" clip-rule="evenodd" fill="#E3E3E9" d="M407.53,318.41c-0.148,0.088-0.23,0.172-0.312,0.174
				c-0.053,0-0.152-0.125-0.146-0.187c0.005-0.058,0.116-0.145,0.188-0.15C407.326,318.242,407.398,318.326,407.53,318.41z"/>
			<path fill-rule="evenodd" clip-rule="evenodd" fill="#E1E1E7" d="M398.586,305.847c-0.102-0.116-0.217-0.197-0.201-0.241
				c0.023-0.082,0.116-0.158,0.199-0.203c0.021-0.012,0.167,0.098,0.16,0.145C398.738,305.632,398.662,305.711,398.586,305.847z"/>
			<path fill-rule="evenodd" clip-rule="evenodd" fill="#E3E3E9" d="M399.605,317.346c0.072,0.13,0.149,0.207,0.14,0.27
				c-0.011,0.066-0.106,0.119-0.164,0.178c-0.057-0.064-0.15-0.126-0.155-0.193C399.42,317.537,399.514,317.469,399.605,317.346z"/>
			<path fill-rule="evenodd" clip-rule="evenodd" fill="#E5E5EB" d="M401.08,316.979c-0.123,0.091-0.193,0.184-0.259,0.181
				c-0.071-0.003-0.138-0.095-0.205-0.148c0.062-0.065,0.114-0.167,0.187-0.183C400.863,316.814,400.947,316.901,401.08,316.979z"/>
			<path fill-rule="evenodd" clip-rule="evenodd" fill="#E3E3E9" d="M402.945,320.049c-0.088,0.035-0.18,0.109-0.257,0.096
				c-0.079-0.015-0.173-0.104-0.196-0.18c-0.012-0.043,0.098-0.16,0.168-0.174c0.059-0.011,0.139,0.077,0.209,0.121
				C402.895,319.958,402.918,320.004,402.945,320.049z"/>
			<path fill-rule="evenodd" clip-rule="evenodd" fill="#F4F4F6" d="M402.254,309.502c0.098,0.128,0.194,0.201,0.182,0.256
				c-0.012,0.078-0.104,0.141-0.161,0.211c-0.057-0.062-0.151-0.117-0.161-0.186C402.104,309.719,402.18,309.643,402.254,309.502z"
				/>
			<path fill-rule="evenodd" clip-rule="evenodd" fill="#E8E8ED" d="M402.449,314.238c0.07,0.125,0.156,0.208,0.145,0.276
				c-0.012,0.065-0.126,0.111-0.193,0.165c-0.055-0.068-0.152-0.136-0.15-0.204C402.25,314.41,402.352,314.348,402.449,314.238z"/>
			<path fill-rule="evenodd" clip-rule="evenodd" fill="#D0D0DB" d="M399.019,313.816c-0.111,0.093-0.179,0.193-0.241,0.191
				c-0.064-0.002-0.17-0.099-0.178-0.162c-0.007-0.055,0.092-0.164,0.157-0.176C398.818,313.66,398.896,313.744,399.019,313.816z"/>
			<path fill-rule="evenodd" clip-rule="evenodd" fill="#E8E8ED" d="M401.117,312.861c-0.064,0.036-0.15,0.115-0.191,0.098
				c-0.078-0.032-0.133-0.121-0.197-0.188c0.068-0.051,0.135-0.141,0.207-0.146c0.084-0.006,0.177,0.061,0.264,0.096
				C401.174,312.769,401.145,312.814,401.117,312.861z"/>
			<path fill-rule="evenodd" clip-rule="evenodd" fill="#E8E8ED" d="M399.312,310.227c-0.129,0.076-0.215,0.162-0.27,0.146
				c-0.066-0.018-0.152-0.119-0.15-0.183c0.002-0.054,0.114-0.144,0.181-0.148C399.132,310.039,399.196,310.132,399.312,310.227z"/>
			<path fill-rule="evenodd" clip-rule="evenodd" fill="#DFDFE6" d="M401.719,318.93c-0.129,0.089-0.209,0.176-0.295,0.186
				c-0.049,0.004-0.17-0.135-0.156-0.182c0.023-0.074,0.122-0.158,0.204-0.172C401.531,318.752,401.607,318.852,401.719,318.93z"/>
			<path fill-rule="evenodd" clip-rule="evenodd" fill="#DBDBE3" d="M403.75,314.898c-0.111,0.096-0.178,0.201-0.248,0.203
				c-0.063,0.001-0.179-0.104-0.184-0.168c-0.006-0.061,0.098-0.168,0.168-0.18C403.554,314.742,403.636,314.83,403.75,314.898z"/>
			<path fill-rule="evenodd" clip-rule="evenodd" fill="#DBDBE3" d="M403.379,312.458c-0.07-0.128-0.153-0.212-0.141-0.275
				c0.018-0.067,0.121-0.116,0.189-0.171c0.053,0.067,0.154,0.135,0.151,0.202C403.578,312.282,403.475,312.348,403.379,312.458z"/>
			<path fill-rule="evenodd" clip-rule="evenodd" fill="#DBDBE3" d="M403.748,316.932c-0.125,0.094-0.203,0.191-0.26,0.184
				c-0.061-0.011-0.139-0.109-0.154-0.182c-0.008-0.041,0.095-0.143,0.147-0.146C403.553,316.785,403.623,316.859,403.748,316.932z"
				/>
			<path fill-rule="evenodd" clip-rule="evenodd" fill="#DFDFE6" d="M402.814,310.839c-0.102,0.067-0.176,0.152-0.229,0.143
				c-0.077-0.015-0.14-0.101-0.21-0.157c0.062-0.061,0.126-0.17,0.191-0.17C402.637,310.652,402.707,310.751,402.814,310.839z"/>
			<path fill-rule="evenodd" clip-rule="evenodd" fill="#E5E5EB" d="M404.906,319.145c-0.109,0.074-0.207,0.176-0.245,0.159
				c-0.079-0.034-0.127-0.136-0.188-0.21c0.071-0.052,0.141-0.144,0.207-0.143C404.745,318.954,404.806,319.055,404.906,319.145z"/>
			<path fill-rule="evenodd" clip-rule="evenodd" fill="#D0D0DB" d="M405.979,317.002c0.082,0.096,0.188,0.18,0.176,0.209
				c-0.041,0.08-0.129,0.139-0.199,0.204c-0.052-0.058-0.152-0.118-0.148-0.171C405.813,317.172,405.9,317.105,405.979,317.002z"/>
			<path fill-rule="evenodd" clip-rule="evenodd" fill="#E3E4E9" d="M398.681,307.002c0.078,0.151,0.146,0.227,0.14,0.297
				c-0.004,0.057-0.098,0.105-0.151,0.158c-0.06-0.061-0.155-0.116-0.165-0.183C398.494,307.215,398.586,307.143,398.681,307.002z"
				/>
			<path fill-rule="evenodd" clip-rule="evenodd" fill="#DBDBE3" d="M398.984,310.965c0.096,0.084,0.213,0.16,0.202,0.187
				c-0.035,0.083-0.116,0.147-0.18,0.22c-0.06-0.051-0.167-0.104-0.167-0.154C398.842,311.145,398.918,311.071,398.984,310.965z"/>
			<path fill-rule="evenodd" clip-rule="evenodd" fill="#EEEEF1" d="M386.379,294.677c0.01-0.018,0.023-0.034,0.037-0.049
				c0.113-0.086,0.227-0.174,0.339-0.26c0.019-0.02,0.034-0.04,0.057-0.058c0.034-0.025,0.071-0.048,0.104-0.073l-0.007,0.007
				c0.048,0.002,0.097,0.005,0.145,0.008c-0.012,0.037-0.015,0.077-0.032,0.108c-0.028,0.05-0.07,0.095-0.107,0.142l0.002-0.007
				c-0.109,0.078-0.214,0.167-0.334,0.226c-0.05,0.022-0.131-0.021-0.197-0.036L386.379,294.677z"/>
			<path fill-rule="evenodd" clip-rule="evenodd" fill="#EEEEF1" d="M384.55,296.219c0.137-0.12,0.271-0.244,0.417-0.354
				c0.021-0.019,0.091,0.024,0.139,0.04c-0.015,0.042-0.03,0.085-0.047,0.128l0.006-0.009c-0.15,0.107-0.302,0.214-0.454,0.32
				l-0.003-0.003C384.59,296.3,384.566,296.26,384.55,296.219z"/>
			<path fill-rule="evenodd" clip-rule="evenodd" fill="#F8CF0D" d="M389.94,288.07c0.043-0.141,0.088-0.281,0.133-0.421
				c0.042,0.034,0.087,0.068,0.131,0.1c-0.086,0.149-0.167,0.299-0.248,0.448C389.951,288.155,389.947,288.113,389.94,288.07z"/>
			<path fill-rule="evenodd" clip-rule="evenodd" fill="#F8CF0D" d="M389.422,287.369c0.185-0.023,0.37-0.044,0.555-0.066
				c-0.057,0.042-0.113,0.119-0.172,0.119C389.677,287.425,389.549,287.39,389.422,287.369z"/>
			<path fill-rule="evenodd" clip-rule="evenodd" fill="#E1E1E7" d="M381.971,298.511c-0.071-0.007-0.144-0.013-0.234-0.022
				c0.02-0.083,0.032-0.15,0.045-0.217c0.098,0.012,0.191,0.025,0.325,0.042C382.054,298.392,382.014,298.451,381.971,298.511z"/>
			<path fill-rule="evenodd" clip-rule="evenodd" fill="#E1E1E7" d="M381.65,298.274c-0.24,0.014-0.48,0.029-0.721,0.044
				C381.17,298.304,381.41,298.289,381.65,298.274z"/>
			<path fill-rule="evenodd" clip-rule="evenodd" fill="#F8CF0D" d="M389.547,287.558c-0.218,0-0.439,0-0.662,0
				C389.107,287.558,389.329,287.558,389.547,287.558z"/>
			<path fill-rule="evenodd" clip-rule="evenodd" fill="#F8CF0D" d="M384.939,290.668c-0.072-0.037-0.146-0.074-0.221-0.111
				c0.013-0.026,0.025-0.053,0.038-0.078c0.06,0.024,0.122,0.049,0.183,0.073C384.939,290.59,384.939,290.629,384.939,290.668z"/>
			<path fill-rule="evenodd" clip-rule="evenodd" fill="#F8CF0D" d="M385.398,290.739c0.068-0.014,0.135-0.028,0.203-0.042
				c0.063,0.015,0.125,0.032,0.188,0.047c-0.146,0.017-0.297,0.033-0.443,0.049c-0.008,0-0.016-0.01-0.023-0.017
				C385.348,290.763,385.371,290.752,385.398,290.739z"/>
			<path fill-rule="evenodd" clip-rule="evenodd" fill="#1E234D" d="M395.08,289.182c0,0.212,0,0.426,0,0.64
				C395.08,289.608,395.08,289.395,395.08,289.182z"/>
			<path fill-rule="evenodd" clip-rule="evenodd" fill="#FAD109" d="M387.637,294.177c-0.039-0.019-0.078-0.039-0.12-0.06
				c0.057-0.047,0.113-0.095,0.169-0.141c0.013,0.011,0.027,0.021,0.043,0.032C387.697,294.065,387.669,294.121,387.637,294.177z"/>
			<path fill-rule="evenodd" clip-rule="evenodd" fill="#FAD109" d="M387.045,296.645c0.018-0.163,0.035-0.326,0.054-0.489
				C387.08,296.319,387.062,296.481,387.045,296.645z"/>
			<path fill-rule="evenodd" clip-rule="evenodd" fill="#F8CF0D" d="M388.887,287.42c0.155-0.017,0.307-0.034,0.46-0.05
				C389.192,287.386,389.042,287.403,388.887,287.42z"/>
			<path fill-rule="evenodd" clip-rule="evenodd" fill="#FAD109" d="M383.229,298.081c-0.066,0.037-0.133,0.075-0.198,0.112
				c-0.042-0.001-0.087-0.003-0.134-0.003l0.002,0.004C383.009,298.157,383.119,298.118,383.229,298.081z"/>
			<path fill-rule="evenodd" clip-rule="evenodd" fill="#E1E1E7" d="M381.469,298.758c0.014,0.044,0.029,0.088,0.045,0.131
				c-0.033,0.028-0.063,0.057-0.098,0.086c-0.016-0.011-0.031-0.022-0.05-0.034C381.4,298.88,381.434,298.82,381.469,298.758z"/>
			<path fill-rule="evenodd" clip-rule="evenodd" fill="#FAD109" d="M386.919,296.488c0.034,0.057,0.071,0.115,0.104,0.172
				c-0.052,0.021-0.101,0.044-0.207,0.089C386.865,296.629,386.891,296.558,386.919,296.488z"/>
			<path fill-rule="evenodd" clip-rule="evenodd" fill="#FAD109" d="M384.939,290.668c0-0.039,0-0.078,0-0.117
				c0.045,0,0.09,0,0.131-0.002c0.023,0.04,0.045,0.079,0.07,0.119C385.074,290.668,385.006,290.668,384.939,290.668z"/>
			<path fill-rule="evenodd" clip-rule="evenodd" fill="#F8CF0D" d="M385.141,290.668c-0.025-0.04-0.047-0.079-0.07-0.119
				c0.068-0.016,0.135-0.031,0.201-0.048c0.006,0.042,0.012,0.084,0.018,0.125l-0.004-0.001c-0.025,0.012-0.053,0.024-0.077,0.036
				C385.183,290.664,385.161,290.666,385.141,290.668z"/>
			<path fill-rule="evenodd" clip-rule="evenodd" fill="#FAD109" d="M385.346,297.745c0.027,0.024,0.059,0.047,0.086,0.07
				c-0.074,0.005-0.148,0.008-0.222,0.013C385.253,297.801,385.299,297.772,385.346,297.745z"/>
			<path fill-rule="evenodd" clip-rule="evenodd" fill="#FAD109" d="M386.322,297.68c-0.039,0.038-0.078,0.078-0.115,0.115
				c-0.006-0.038-0.012-0.074-0.018-0.113C386.231,297.682,386.277,297.681,386.322,297.68z"/>
			<path fill-rule="evenodd" clip-rule="evenodd" fill="#1E234D" d="M395.27,290.094c-0.084-0.017-0.173-0.035-0.257-0.054
				C395.097,290.059,395.186,290.076,395.27,290.094z"/>
			<path fill-rule="evenodd" clip-rule="evenodd" fill="#F8CF0D" d="M390.204,287.405c-0.001-0.094-0.001-0.188-0.001-0.282
				C390.203,287.217,390.203,287.311,390.204,287.405z"/>
			<path fill-rule="evenodd" clip-rule="evenodd" fill="#FAD109" d="M382.962,299.262c0.003,0.044,0.005,0.087,0.007,0.131
				c-0.043-0.042-0.089-0.082-0.136-0.125c0,0-0.002,0.006-0.002,0.008C382.876,299.271,382.92,299.267,382.962,299.262z"/>
			<path fill-rule="evenodd" clip-rule="evenodd" fill="#F8CF0D" d="M385.732,290.055c0,0.039-0.001,0.077-0.002,0.115
				c-0.023,0.017-0.051,0.033-0.073,0.048C385.682,290.163,385.709,290.109,385.732,290.055z"/>
			<path fill-rule="evenodd" clip-rule="evenodd" fill="#EEEEF1" d="M382.075,298.257c0.033-0.035,0.069-0.068,0.103-0.102
				c0.043,0.017,0.084,0.03,0.127,0.048c-0.057,0.056-0.114,0.112-0.172,0.168C382.112,298.334,382.094,298.295,382.075,298.257z"/>
			<path fill-rule="evenodd" clip-rule="evenodd" fill="#FAD109" d="M384.082,297.888c-0.08,0.017-0.16,0.036-0.243,0.053
				C383.922,297.923,384.002,297.905,384.082,297.888z"/>
			<path fill-rule="evenodd" clip-rule="evenodd" fill="#FAD109" d="M385.006,297.684c0.089,0.016,0.174,0.033,0.263,0.048
				C385.18,297.717,385.095,297.7,385.006,297.684z"/>
			<path fill-rule="evenodd" clip-rule="evenodd" fill="#1E234D" d="M395.729,290.232c-0.066-0.009-0.131-0.019-0.197-0.026
				C395.598,290.213,395.662,290.223,395.729,290.232z"/>
			<path fill-rule="evenodd" clip-rule="evenodd" fill="#FAD109" d="M384.535,297.939c-0.061-0.016-0.12-0.031-0.181-0.047
				C384.415,297.908,384.475,297.923,384.535,297.939z"/>
			<path fill-rule="evenodd" clip-rule="evenodd" fill="#F8CF0D" d="M388.561,287.48c0.062-0.016,0.125-0.033,0.188-0.049
				C388.685,287.448,388.623,287.464,388.561,287.48z"/>
			<path fill-rule="evenodd" clip-rule="evenodd" fill="#1E234D" d="M395.08,289.892c0.062,0.012,0.127,0.025,0.189,0.037
				C395.207,289.917,395.143,289.904,395.08,289.892z"/>
			<path fill-rule="evenodd" clip-rule="evenodd" fill="#1E234D" d="M395.005,289.286c-0.019-0.067-0.034-0.132-0.05-0.198
				C394.971,289.154,394.986,289.219,395.005,289.286z"/>
			<path fill-rule="evenodd" clip-rule="evenodd" fill="#1E234D" d="M389.283,283.854c-0.064,0.005-0.129,0.009-0.193,0.012
				C389.154,283.863,389.219,283.858,389.283,283.854z"/>
			<path fill-rule="evenodd" clip-rule="evenodd" fill="#1E234D" d="M394.943,288.958c-0.021-0.062-0.041-0.125-0.059-0.189
				C394.902,288.833,394.922,288.896,394.943,288.958z"/>
			<path fill-rule="evenodd" clip-rule="evenodd" fill="#FAD109" d="M386.784,296.345c0.022-0.043,0.042-0.088,0.062-0.132
				C386.826,296.257,386.807,296.302,386.784,296.345z"/>
			<path fill-rule="evenodd" clip-rule="evenodd" fill="#FAD109" d="M386.916,296.219c0.007,0.062,0.011,0.124,0.014,0.188
				C386.927,296.343,386.923,296.281,386.916,296.219z"/>
			<path fill-rule="evenodd" clip-rule="evenodd" fill="#FAD109" d="M383.637,299.59c0.061,0.016,0.121,0.032,0.183,0.051
				C383.758,299.623,383.697,299.606,383.637,299.59z"/>
			<path fill-rule="evenodd" clip-rule="evenodd" fill="#FAD109" d="M383.184,299.459c0.061,0.02,0.119,0.038,0.178,0.057
				C383.303,299.498,383.244,299.479,383.184,299.459z"/>
			<path fill-rule="evenodd" clip-rule="evenodd" fill="#F8CF0D" d="M389.662,286.927c-0.06-0.016-0.119-0.033-0.178-0.05
				C389.543,286.894,389.603,286.911,389.662,286.927z"/>
			<path fill-rule="evenodd" clip-rule="evenodd" fill="#1E234D" d="M398.82,292.525c0.027-0.042,0.058-0.084,0.085-0.125
				c0.013,0.022,0.024,0.045,0.04,0.067C398.902,292.485,398.859,292.504,398.82,292.525z"/>
			<path fill-rule="evenodd" clip-rule="evenodd" fill="#1E234D" d="M399.024,295.061c-0.021-0.06-0.044-0.12-0.063-0.181
				C398.98,294.941,399.004,295.001,399.024,295.061z"/>
			<path fill-rule="evenodd" clip-rule="evenodd" fill="#F8CF0D" d="M388.623,286.875c-0.061,0.017-0.121,0.035-0.181,0.052
				C388.502,286.91,388.562,286.892,388.623,286.875z"/>
			<path fill-rule="evenodd" clip-rule="evenodd" fill="#F8CF0D" d="M389.146,286.86c-0.064-0.001-0.129-0.002-0.194-0.002
				C389.018,286.858,389.082,286.859,389.146,286.86z"/>
			<path fill-rule="evenodd" clip-rule="evenodd" fill="#F8CF0D" d="M385.996,290.726c0.059-0.017,0.119-0.033,0.179-0.049
				C386.115,290.692,386.055,290.708,385.996,290.726z"/>
			<path fill-rule="evenodd" clip-rule="evenodd" fill="#1E234D" d="M389.943,283.985c-0.064-0.02-0.129-0.039-0.189-0.058
				C389.814,283.946,389.879,283.966,389.943,283.985z"/>
			<path fill-rule="evenodd" clip-rule="evenodd" fill="#FAD109" d="M387.242,295.315c0.018-0.06,0.035-0.118,0.057-0.177
				C387.277,295.197,387.26,295.255,387.242,295.315z"/>
			<path fill-rule="evenodd" clip-rule="evenodd" fill="#FAD109" d="M387.182,295.581c0.016-0.062,0.033-0.126,0.053-0.189
				C387.215,295.454,387.197,295.518,387.182,295.581z"/>
			<path fill-rule="evenodd" clip-rule="evenodd" fill="#1E234D" d="M389.677,283.92c-0.066-0.017-0.134-0.035-0.2-0.051
				C389.543,283.886,389.61,283.903,389.677,283.92z"/>
			<path fill-rule="evenodd" clip-rule="evenodd" fill="#FAD109" d="M387.115,295.96c0.014-0.062,0.028-0.123,0.044-0.185
				C387.144,295.837,387.129,295.898,387.115,295.96z"/>
			<path fill-rule="evenodd" clip-rule="evenodd" fill="#F8CF0D" d="M389.991,287.626c-0.034-0.013-0.072-0.026-0.106-0.039
				C389.919,287.6,389.957,287.613,389.991,287.626z"/>
			<path fill-rule="evenodd" clip-rule="evenodd" fill="#1E234D" d="M389.217,283.675c0.031,0.019,0.064,0.038,0.096,0.056
				C389.281,283.713,389.248,283.694,389.217,283.675z"/>
			<path fill-rule="evenodd" clip-rule="evenodd" fill="#FAD109" d="M387.373,294.868c0.014-0.037,0.027-0.074,0.045-0.109
				C387.4,294.794,387.387,294.832,387.373,294.868z"/>
			<path fill-rule="evenodd" clip-rule="evenodd" fill="#FAD109" d="M382.985,299.396c0.034,0.014,0.073,0.029,0.106,0.044
				C383.059,299.426,383.02,299.411,382.985,299.396z"/>
			<path fill-rule="evenodd" clip-rule="evenodd" fill="#F8CF0D" d="M386.332,290.648c0.035-0.012,0.07-0.025,0.104-0.037
				C386.401,290.623,386.367,290.636,386.332,290.648z"/>
			<path fill-rule="evenodd" clip-rule="evenodd" fill="#F8CF0D" d="M386.523,290.594c0.038-0.015,0.071-0.03,0.107-0.045
				c0.01,0.025,0.019,0.05,0.027,0.073l0.006,0.012C386.619,290.62,386.572,290.606,386.523,290.594z"/>
			<path fill-rule="evenodd" clip-rule="evenodd" fill="#FAD109" d="M385.025,298.066c0.01,0.024,0.02,0.049,0.029,0.074
				c-0.015-0.003-0.029-0.007-0.049-0.01C385.014,298.109,385.02,298.087,385.025,298.066z"/>
			<path fill-rule="evenodd" clip-rule="evenodd" fill="#FAD109" d="M383.489,298.024c-0.038,0.015-0.073,0.029-0.111,0.043
				C383.416,298.053,383.451,298.039,383.489,298.024z"/>
			<path fill-rule="evenodd" clip-rule="evenodd" fill="#E1E1E7" d="M385.793,295.192c-0.022,0.023-0.048,0.044-0.072,0.066
				c0.006-0.018,0.012-0.038,0.017-0.057C385.759,295.198,385.775,295.195,385.793,295.192z"/>
			<path fill-rule="evenodd" clip-rule="evenodd" fill="#EEEEF1" d="M400.029,298.263l-0.01,0.008L400.029,298.263z"/>
			<polygon fill-rule="evenodd" clip-rule="evenodd" fill="#EEEEF1" points="382.127,298.626 382.113,298.629 382.132,298.622 			
				"/>
			<path fill-rule="evenodd" clip-rule="evenodd" fill="#EEEEF1" d="M385.104,295.905c0.014-0.039,0.028-0.078,0.044-0.116
				c0.029,0.016,0.062,0.032,0.092,0.048C385.197,295.86,385.151,295.882,385.104,295.905z"/>
			<path fill-rule="evenodd" clip-rule="evenodd" fill="#FAD109" d="M385.208,290.662c0.024-0.012,0.052-0.024,0.077-0.036
				c-0.004,0.018-0.012,0.034-0.023,0.049C385.24,290.672,385.225,290.668,385.208,290.662z"/>
			<path fill-rule="evenodd" clip-rule="evenodd" fill="#101440" d="M387.051,292.516c0.107,0.107,0.219,0.215,0.328,0.322
				C387.269,292.731,387.157,292.623,387.051,292.516z"/>
			<path fill-rule="evenodd" clip-rule="evenodd" fill="#FAD109" d="M386.871,295.77c0-0.215,0-0.43,0-0.646
				c0.021,0,0.041,0,0.066-0.001c0,0.214,0,0.428,0,0.643C386.912,295.767,386.892,295.77,386.871,295.77z"/>
			<path fill-rule="evenodd" clip-rule="evenodd" fill="#FAD109" d="M385.86,298.254c0.026-0.064,0.048-0.131,0.069-0.198
				c0.04,0.026,0.079,0.051,0.115,0.076c-0.062,0.042-0.122,0.083-0.184,0.124L385.86,298.254z"/>
			<path fill-rule="evenodd" clip-rule="evenodd" fill="#FAD109" d="M386.092,297.872c0.025,0.027,0.045,0.045,0.062,0.065
				c-0.02,0.018-0.042,0.049-0.062,0.048c-0.02,0-0.043-0.03-0.062-0.048C386.047,297.917,386.068,297.898,386.092,297.872z"/>
			<path fill-rule="evenodd" clip-rule="evenodd" fill="#E1E1E7" d="M386.484,294.944c-0.012-0.042-0.021-0.084-0.031-0.125
				l-0.005-0.018c0,0-0.008,0.014-0.008,0.016c0.006,0.05,0.011,0.098,0.017,0.146C386.467,294.959,386.476,294.953,386.484,294.944
				z"/>
			<path fill-rule="evenodd" clip-rule="evenodd" fill="#FAD109" d="M383.12,298.951c0.015-0.039,0.028-0.079,0.044-0.12
				C383.148,298.873,383.135,298.913,383.12,298.951z"/>
			<path fill-rule="evenodd" clip-rule="evenodd" fill="#FAD109" d="M383.17,298.496c-0.016-0.036-0.029-0.071-0.041-0.106
				C383.141,298.425,383.154,298.46,383.17,298.496z"/>
			<path fill-rule="evenodd" clip-rule="evenodd" fill="#101440" d="M381.46,318.879c-0.089-0.108-0.175-0.217-0.261-0.324
				C381.285,318.662,381.371,318.771,381.46,318.879z"/>
			<path fill-rule="evenodd" clip-rule="evenodd" fill="#101440" d="M381.203,318.562c-0.026-0.064-0.049-0.129-0.071-0.193
				C381.154,318.434,381.177,318.498,381.203,318.562z"/>
			<path fill-rule="evenodd" clip-rule="evenodd" fill="#101440" d="M381.596,319.107c-0.023-0.056-0.05-0.111-0.074-0.168
				C381.546,318.996,381.572,319.052,381.596,319.107z"/>
			<path fill-rule="evenodd" clip-rule="evenodd" fill="#101440" d="M381.525,318.945c-0.023,0.002-0.052,0.005-0.075,0.007
				c0.002-0.024,0.004-0.051,0.007-0.077C381.479,318.898,381.504,318.922,381.525,318.945z"/>
			<path fill-rule="evenodd" clip-rule="evenodd" fill="#F8CF0D" d="M388.867,288.963c0.005,0.071,0.012,0.142,0.018,0.213
				c0-0.001,0.01-0.01,0.01-0.01c-0.026,0.014-0.049,0.026-0.076,0.041C388.665,289.094,388.773,289.031,388.867,288.963z"/>
			<path fill-rule="evenodd" clip-rule="evenodd" fill="#F8CF0D" d="M388.727,288.308c-0.008,0.016-0.01,0.04-0.025,0.045
				c-0.012,0.004-0.029-0.012-0.045-0.019c0.007-0.016,0.01-0.04,0.021-0.044C388.688,288.286,388.711,288.301,388.727,288.308z"/>
			<path fill-rule="evenodd" clip-rule="evenodd" fill="#F8CF0D" d="M387.506,289.282c-0.02,0.032-0.043,0.063-0.062,0.095
				c-0.013-0.012-0.025-0.024-0.039-0.037c0.033-0.021,0.064-0.041,0.1-0.061L387.506,289.282z"/>
			<path fill-rule="evenodd" clip-rule="evenodd" fill="#F8CF0D" d="M388.098,287.685c0.009-0.023,0.018-0.046,0.025-0.07
				c0.008,0.003,0.015,0.007,0.021,0.011c-0.014,0.021-0.027,0.042-0.042,0.064L388.098,287.685z"/>
			<path fill-rule="evenodd" clip-rule="evenodd" fill="#F8CF0D" d="M389.74,287.24c0.004-0.007,0.01-0.015,0.018-0.021
				c-0.004,0.009-0.01,0.016-0.014,0.025L389.74,287.24z"/>
			<path fill-rule="evenodd" clip-rule="evenodd" fill="#F8CF0D" d="M389.744,287.244c-0.004,0.007-0.01,0.014-0.014,0.021
				c0.003-0.008,0.006-0.015,0.01-0.024L389.744,287.244z"/>
			<path fill-rule="evenodd" clip-rule="evenodd" fill="#F8CF0D" d="M386.066,289.982c-0.006,0.007-0.015,0.014-0.021,0.022
				c0.003-0.011,0.007-0.02,0.011-0.031L386.066,289.982z"/>
			<path fill-rule="evenodd" clip-rule="evenodd" fill="#F8CF0D" d="M386.057,289.973c0.008-0.006,0.014-0.013,0.018-0.021
				c-0.002,0.01-0.005,0.02-0.008,0.029L386.057,289.973z"/>
			<path fill-rule="evenodd" clip-rule="evenodd" fill="#F8CF0D" d="M386.479,289.586c0,0-0.012-0.009-0.011-0.009L386.479,289.586z
				"/>
			<path fill-rule="evenodd" clip-rule="evenodd" fill="#F8CF0D" d="M388.103,287.69c-0.005,0.006-0.012,0.014-0.019,0.02
				c0.004-0.008,0.01-0.017,0.014-0.026L388.103,287.69z"/>
			<path fill-rule="evenodd" clip-rule="evenodd" fill="#101440" d="M379.479,318.526c0.023,0.034,0.047,0.069,0.074,0.103
				C379.525,318.596,379.502,318.561,379.479,318.526z"/>
			<path fill-rule="evenodd" clip-rule="evenodd" fill="#2C2E47" d="M393.034,318.789c0.067,0.13,0.126,0.266,0.205,0.387
				c0.156,0.234,0.372,0.283,0.622,0.152c0.388-0.201,0.484-1.035,0.159-1.34c-0.001-0.016-0.001-0.033-0.001-0.051
				c0.196,0.027,0.275,0.136,0.268,0.328c-0.007,0.168,0.011,0.338,0.006,0.506c-0.012,0.441-0.29,0.767-0.651,0.779
				C393.299,319.562,393.055,319.255,393.034,318.789z"/>
			<path fill-rule="evenodd" clip-rule="evenodd" fill="#101440" d="M393.564,317.928c-0.091,0.031-0.184,0.063-0.273,0.095
				C393.381,317.991,393.474,317.959,393.564,317.928z"/>
			<path fill-rule="evenodd" clip-rule="evenodd" fill="#101440" d="M393.828,317.93c-0.092,0.001-0.181,0.001-0.273,0.001
				C393.647,317.931,393.736,317.931,393.828,317.93z"/>
			<path fill-rule="evenodd" clip-rule="evenodd" fill="#101440" d="M394.02,317.938c0,0.018,0,0.035,0.001,0.051
				c-0.067-0.021-0.136-0.041-0.206-0.062C393.885,317.931,393.953,317.936,394.02,317.938z"/>
			<path fill-rule="evenodd" clip-rule="evenodd" fill="#E1E1E7" d="M384.55,296.219c0.017,0.041,0.04,0.081,0.058,0.121
				c-0.067,0-0.134,0.001-0.199,0.002C384.453,296.301,384.502,296.26,384.55,296.219z"/>
			<path fill-rule="evenodd" clip-rule="evenodd" fill="#FAD109" d="M388.922,288.797c0.025-0.003,0.055-0.006,0.079-0.007
				c-0.013,0.016-0.025,0.032-0.039,0.048C388.945,288.826,388.934,288.812,388.922,288.797z"/>
		</g>
	</g>
	<g>
		<path fill="none" d="M342.385,334.553c0,0,34.571,17.664,113.208,0.223"/>
		
			<text transform="matrix(0.9485 0.0889 -0.0935 0.9956 369.23 341.2891)" fill="#FFFFFF" font-family="'Impact'" font-size="18.8193">S</text>
		
			<text transform="matrix(0.9519 0.0365 -0.0385 0.9993 379.2803 342.1992)" fill="#FFFFFF" font-family="'Impact'" font-size="18.8193">A</text>
		<text transform="matrix(0.9526 -0.0035 0.0035 1 389.1104 342.5332)" fill="#FFFFFF" font-family="'Impact'" font-size="18.8193">L</text>
		
			<text transform="matrix(0.9519 -0.0375 0.0392 0.9992 396.5967 342.5039)" fill="#FFFFFF" font-family="'Impact'" font-size="18.8193">T</text>
		
			<text transform="matrix(0.9499 -0.0714 0.0749 0.9972 405.5127 342.1406)" fill="#FFFFFF" font-family="'Impact'" font-size="18.8193">Y</text>
	</g>
	<g>
		<path fill="none" d="M329.397,351.275c0,0,33.681,19.203,113.076,5.332"/>
		
			<text transform="matrix(0.9433 0.1298 -0.1394 0.9905 355.9067 359.208)" fill="#FFFFFF" font-family="'Impact'" font-size="18.8207">G</text>
		
			<text transform="matrix(0.9488 0.082 -0.0893 0.9961 366.4907 360.5996)" fill="#FFFFFF" font-family="'Impact'" font-size="18.8207">L</text>
		
			<text transform="matrix(0.9511 0.051 -0.0567 0.9984 373.9268 361.2168)" fill="#FFFFFF" font-family="'Impact'" font-size="18.8207">I</text>
		
			<text transform="matrix(0.9523 0.0194 -0.0236 0.9996 379.728 361.541)" fill="#FFFFFF" font-family="'Impact'" font-size="18.8207">T</text>
		
			<text transform="matrix(0.9525 -0.0187 0.0165 0.9997 388.6909 361.7227)" fill="#FFFFFF" font-family="'Impact'" font-size="18.8207">C</text>
		
			<text transform="matrix(0.9511 -0.0559 0.0556 0.9981 399.3076 361.4961)" fill="#FFFFFF" font-family="'Impact'" font-size="18.8207">H</text>
		
			<text transform="matrix(0.949 -0.0855 0.0866 0.9958 409.8525 360.8457)" fill="#FFFFFF" font-family="'Impact'" font-size="18.8207">E</text>
		
			<text transform="matrix(0.9464 -0.1117 0.1142 0.9929 417.8672 360.127)" fill="#FFFFFF" font-family="'Impact'" font-size="18.8207">S</text>
	</g>
	<text transform="matrix(0.9526 0 0 1 381.5391 371.7441)" fill="#FFFFFF" font-family="'Impact'" font-size="5.5351">//071618</text>
</g>
</svg>
